<svg width="1389" height="1598" viewBox="0 0 1389 1598" fill="none" xmlns="http://www.w3.org/2000/svg">
<path d="M151.461 218.929C152.918 222.932 151.151 227.023 146.443 228.737C141.679 230.471 137.81 228.527 136.322 224.439C135.204 221.366 135.808 218.816 136.833 215.665L139.176 208.332L143.432 206.782L140.339 216.177C140.833 215.518 141.597 214.985 142.753 214.564C146.446 213.22 150.014 214.954 151.461 218.929ZM147.712 220.294C146.921 218.123 144.955 217.019 142.475 217.922C140.191 218.753 139.254 220.914 140.044 223.085C140.782 225.114 142.836 226.282 145.204 225.421C147.685 224.518 148.45 222.323 147.712 220.294ZM158.019 201.058C162.53 199.417 166.393 201.171 168.075 205.794L170.23 211.715C171.954 216.451 170.025 220.186 165.571 221.807C161.117 223.428 157.238 221.807 155.514 217.071L153.36 211.15C151.677 206.527 153.508 202.7 158.019 201.058ZM164.34 218.424C166.736 217.552 167.35 215.381 166.488 213.013L164.375 207.205C163.513 204.837 161.646 203.569 159.25 204.441C156.798 205.334 156.24 207.484 157.101 209.852L159.215 215.66C160.077 218.028 161.887 219.316 164.34 218.424Z" fill="#F80082"/>
<path d="M207.031 371.737C208.334 375.317 206.444 378.719 201.68 380.453C196.549 382.32 193.208 379.897 191.998 377.272L195.747 375.908C196.393 376.982 198.044 378.009 200.469 377.126C202.837 376.265 203.828 374.691 203.172 372.886C202.515 371.082 200.972 370.526 198.914 371.275L195.136 372.65L193.946 369.38L197.611 368.046C199.33 367.42 200.055 366.167 199.45 364.504C198.845 362.84 197.227 362.344 195.226 363.072C193.083 363.852 192.604 365.431 192.82 366.725L189.127 368.069C188.237 365.36 189.356 361.505 194.007 359.812C198.518 358.171 201.866 359.474 203.107 362.885C203.959 365.225 202.891 367.114 201.871 367.996C203.529 367.904 205.913 368.664 207.031 371.737ZM213.263 352.772C217.774 351.13 221.637 352.885 223.319 357.508L225.474 363.428C227.198 368.164 225.269 371.899 220.815 373.52C216.361 375.141 212.482 373.52 210.758 368.784L208.604 362.864C206.921 358.241 208.752 354.413 213.263 352.772ZM219.584 370.137C221.98 369.265 222.594 367.094 221.732 364.726L219.619 358.919C218.757 356.551 216.891 355.283 214.494 356.155C212.042 357.047 211.484 359.198 212.345 361.566L214.459 367.373C215.321 369.741 217.131 371.03 219.584 370.137Z" fill="#F80082"/>
<path d="M105.138 251.18L102.429 243.737L110.623 240.755L111.225 242.409L104.76 244.762L106.169 248.633C106.504 247.916 107.223 247.143 108.52 246.671C110.813 245.837 113.368 246.716 114.387 249.516L114.462 249.723C115.406 252.316 114.19 254.823 111.39 255.843C108.326 256.958 106.176 255.612 105.287 253.637L107.073 252.987C107.551 253.834 108.702 254.948 110.788 254.189C112.498 253.566 113.239 251.977 112.658 250.379L112.589 250.192C111.967 248.481 110.437 247.846 108.708 248.475C107.036 249.084 106.739 250.256 106.641 250.632L105.138 251.18ZM117.288 246.757L114.579 239.315L122.773 236.333L123.375 237.987L116.91 240.34L118.319 244.211C118.654 243.493 119.373 242.721 120.67 242.249C122.963 241.414 125.517 242.294 126.537 245.094L126.612 245.301C127.556 247.894 126.34 250.401 123.54 251.42C120.476 252.535 118.326 251.19 117.437 249.215L119.223 248.565C119.701 249.412 120.852 250.526 122.938 249.767C124.648 249.144 125.389 247.555 124.808 245.957L124.739 245.769C124.117 244.059 122.587 243.424 120.858 244.053C119.186 244.662 118.889 245.834 118.791 246.21L117.288 246.757Z" fill="black"/>
<path d="M227.337 223.225L232.214 236.625L230.391 237.289L226.287 226.013L223.677 229.134L223.047 227.404L225.983 223.718L227.337 223.225ZM236.076 219.853C238.895 218.827 241.394 219.961 242.509 223.024L243.986 227.083C245.156 230.297 243.86 232.642 241.097 233.647C238.335 234.653 235.834 233.69 234.665 230.476L233.187 226.417C232.072 223.353 233.257 220.879 236.076 219.853ZM240.495 231.994C242.393 231.303 242.853 229.582 242.175 227.721L240.712 223.699C240.034 221.839 238.577 220.816 236.678 221.507C234.78 222.198 234.321 223.918 234.998 225.779L236.462 229.801C237.139 231.661 238.597 232.685 240.495 231.994Z" fill="black"/>
<path d="M196.138 215.076L193.429 207.633L201.623 204.651L202.225 206.305L195.76 208.658L197.169 212.529C197.504 211.812 198.223 211.039 199.52 210.567C201.813 209.733 204.368 210.612 205.387 213.412L205.462 213.619C206.406 216.212 205.19 218.719 202.39 219.739C199.326 220.854 197.176 219.508 196.287 217.533L198.073 216.883C198.551 217.73 199.702 218.844 201.788 218.085C203.498 217.462 204.239 215.873 203.658 214.275L203.589 214.088C202.967 212.377 201.437 211.742 199.708 212.371C198.036 212.98 197.739 214.152 197.641 214.528L196.138 215.076Z" fill="black"/>
<path d="M93.138 285.522L90.4292 278.08L98.6233 275.097L99.2252 276.751L92.7602 279.104L94.1693 282.976C94.504 282.258 95.2231 281.485 96.5199 281.013C98.8128 280.179 101.368 281.058 102.387 283.858L102.462 284.065C103.406 286.659 102.19 289.166 99.3898 290.185C96.3264 291.3 94.1765 289.954 93.2874 287.979L95.0728 287.329C95.5515 288.177 96.7018 289.29 98.7879 288.531C100.498 287.909 101.239 286.319 100.658 284.722L100.589 284.534C99.9669 282.824 98.4374 282.188 96.7084 282.818C95.0357 283.427 94.7388 284.599 94.6415 284.975L93.138 285.522ZM106.949 271.811C109.768 270.785 112.267 271.919 113.382 274.983L114.859 279.042C116.029 282.256 114.733 284.601 111.97 285.606C109.207 286.612 106.707 285.649 105.537 282.435L104.06 278.375C102.945 275.312 104.13 272.838 106.949 271.811ZM111.368 283.952C113.266 283.261 113.725 281.541 113.048 279.68L111.584 275.658C110.907 273.798 109.449 272.774 107.551 273.465C105.653 274.156 105.194 275.877 105.871 277.738L107.335 281.759C108.012 283.62 109.47 284.643 111.368 283.952Z" fill="black"/>
<path d="M247.337 255.883L252.214 269.283L250.391 269.947L246.287 258.671L243.677 261.791L243.047 260.062L245.983 256.376L247.337 255.883ZM254.507 261.766L251.798 254.323L259.992 251.341L260.594 252.995L254.129 255.348L255.538 259.219C255.873 258.502 256.592 257.729 257.889 257.257C260.182 256.423 262.737 257.302 263.756 260.102L263.831 260.309C264.775 262.902 263.559 265.409 260.759 266.429C257.696 267.544 255.546 266.198 254.656 264.223L256.442 263.573C256.921 264.42 258.071 265.534 260.157 264.775C261.867 264.152 262.608 262.563 262.027 260.965L261.959 260.778C261.336 259.067 259.807 258.432 258.078 259.061C256.405 259.67 256.108 260.842 256.011 261.218L254.507 261.766Z" fill="black"/>
<path d="M106.861 318.641L104.023 319.674L105.521 323.789L103.755 324.432L102.257 320.317L95.491 322.779L95.1285 321.783L98.6727 311.171L100.665 310.446L103.449 318.095L106.287 317.062L106.861 318.641ZM97.3221 320.325L101.682 318.738L99.6643 313.194L97.3221 320.325ZM109.077 315.812L106.368 308.37L114.562 305.387L115.164 307.041L108.699 309.394L110.108 313.266C110.443 312.548 111.162 311.776 112.459 311.304C114.752 310.469 117.307 311.348 118.326 314.149L118.401 314.355C119.345 316.949 118.129 319.456 115.329 320.475C112.266 321.59 110.116 320.244 109.226 318.269L111.012 317.619C111.491 318.467 112.641 319.581 114.727 318.821C116.437 318.199 117.178 316.61 116.597 315.012L116.529 314.824C115.906 313.114 114.377 312.479 112.648 313.108C110.975 313.717 110.678 314.889 110.581 315.265L109.077 315.812Z" fill="black"/>
<path d="M261.329 304.623L261.931 306.277L252.553 309.69L252.142 308.562L255.032 302.467C255.952 300.493 256.423 299.214 255.897 297.767C255.356 296.283 254.08 295.64 252.52 296.208C250.96 296.776 250.436 298.201 250.99 299.724L251.305 300.588L249.519 301.238L249.198 300.355C248.302 297.893 249.268 295.519 251.918 294.554C254.568 293.59 256.865 294.755 257.72 297.104C258.486 299.209 257.694 301.008 256.64 303.201L254.826 306.99L261.329 304.623ZM264.325 290.039C267.144 289.013 269.643 290.146 270.757 293.21L272.235 297.269C273.405 300.483 272.108 302.828 269.346 303.833C266.583 304.839 264.083 303.876 262.913 300.662L261.436 296.603C260.321 293.539 261.506 291.065 264.325 290.039ZM268.744 302.179C270.642 301.489 271.101 299.768 270.424 297.907L268.96 293.885C268.283 292.025 266.825 291.002 264.927 291.692C263.029 292.383 262.57 294.104 263.247 295.965L264.711 299.987C265.388 301.847 266.846 302.87 268.744 302.179Z" fill="black"/>
<path d="M128.861 351.983L126.023 353.016L127.521 357.132L125.755 357.775L124.257 353.659L117.491 356.121L117.128 355.125L120.673 344.513L122.665 343.788L125.449 351.437L128.287 350.404L128.861 351.983ZM119.322 353.667L123.682 352.08L121.664 346.536L119.322 353.667ZM132.646 339.9C135.465 338.874 137.964 340.007 139.079 343.071L140.556 347.13C141.726 350.344 140.43 352.689 137.667 353.694C134.905 354.7 132.404 353.737 131.235 350.523L129.757 346.464C128.642 343.4 129.827 340.926 132.646 339.9ZM137.065 352.04C138.963 351.35 139.423 349.629 138.745 347.768L137.282 343.746C136.604 341.886 135.147 340.863 133.248 341.554C131.35 342.244 130.891 343.965 131.568 345.826L133.032 349.848C133.709 351.708 135.167 352.731 137.065 352.04Z" fill="black"/>
<path d="M251.329 342.281L251.931 343.935L242.553 347.348L242.142 346.22L245.032 340.124C245.952 338.151 246.423 336.872 245.897 335.425C245.356 333.941 244.08 333.298 242.52 333.866C240.96 334.434 240.436 335.859 240.99 337.381L241.305 338.246L239.519 338.896L239.198 338.013C238.302 335.551 239.268 333.177 241.918 332.212C244.568 331.248 246.865 332.413 247.72 334.762C248.486 336.867 247.694 338.666 246.64 340.859L244.826 344.648L251.329 342.281ZM252.756 336.951L250.047 329.509L258.241 326.527L258.843 328.18L252.378 330.534L253.787 334.405C254.122 333.687 254.841 332.915 256.138 332.443C258.43 331.608 260.985 332.488 262.004 335.288L262.08 335.495C263.024 338.088 261.808 340.595 259.008 341.614C255.944 342.729 253.794 341.384 252.905 339.409L254.69 338.759C255.169 339.606 256.319 340.72 258.406 339.961C260.116 339.338 260.857 337.749 260.275 336.151L260.207 335.963C259.585 334.253 258.055 333.618 256.326 334.247C254.653 334.856 254.356 336.028 254.259 336.404L252.756 336.951Z" fill="black"/>
<path d="M162.529 373.316C163.37 375.628 162.19 377.824 159.183 378.918C156.026 380.067 153.893 378.651 153.079 376.883L154.902 376.22C155.466 377.185 156.758 377.928 158.581 377.264C160.367 376.614 161.186 375.358 160.646 373.874C160.099 372.37 158.809 371.924 157.08 372.554L154.73 373.409L154.128 371.755L156.534 370.879C157.962 370.36 158.534 369.3 158.042 367.947C157.556 366.612 156.223 366.225 154.72 366.772C153.141 367.347 152.711 368.504 152.915 369.707L151.11 370.363C150.582 368.619 151.193 366.204 154.106 365.144C156.906 364.125 159.046 365.091 159.819 367.215C160.421 368.869 159.69 370.135 159.012 370.786C160.117 370.725 161.756 371.192 162.529 373.316ZM165.196 369.791L162.487 362.349L170.681 359.366L171.283 361.02L164.818 363.373L166.227 367.245C166.562 366.527 167.281 365.754 168.578 365.283C170.871 364.448 173.426 365.327 174.445 368.127L174.52 368.334C175.464 370.928 174.248 373.435 171.448 374.454C168.385 375.569 166.235 374.223 165.346 372.248L167.131 371.598C167.61 372.446 168.76 373.559 170.846 372.8C172.556 372.178 173.297 370.588 172.716 368.991L172.648 368.803C172.025 367.093 170.496 366.458 168.767 367.087C167.094 367.696 166.797 368.868 166.7 369.244L165.196 369.791Z" fill="black"/>
<circle cx="127.126" cy="146.576" r="31.0202" transform="rotate(-20.6479 127.126 146.576)" stroke="black" stroke-width="13"/>
<rect x="111.363" y="137.958" width="22.9423" height="48.2744" transform="rotate(-20.6479 111.363 137.958)" fill="white"/>
<path d="M116.08 166.061L107.458 144.537C112.229 136.866 132.411 128.75 140.361 132.905L147.582 153.424" stroke="black" stroke-width="2"/>
<path d="M121.902 167.954C115.721 168.495 110.209 164.034 128.792 156.419C152.021 146.899 149.658 156.217 144.265 159.527" stroke="black" stroke-width="2"/>
<path d="M127.35 181.734L120.524 163.62C125.72 159.109 133.349 154.957 142.44 155.362L149.266 173.476" stroke="black" stroke-width="2"/>
<circle cx="182.121" cy="289.81" r="115.642" transform="rotate(-20.6479 182.121 289.81)" stroke="black" stroke-width="12"/>
<circle cx="181.981" cy="290.118" r="101.718" transform="rotate(-20.6479 181.981 290.118)" stroke="black" stroke-width="4"/>
<path fill-rule="evenodd" clip-rule="evenodd" d="M40.9779 225.813C42.4762 223.015 44.2202 221.032 45.7796 219.796C46.5603 219.177 47.2799 218.758 47.8846 218.513C48.5068 218.26 48.9307 218.222 49.1557 218.258L49.1558 218.258C49.1591 218.259 49.1794 218.263 49.2215 218.275C49.2683 218.288 49.3297 218.307 49.4073 218.333C49.563 218.385 49.7634 218.46 50.008 218.557C50.4965 218.751 51.1302 219.022 51.8789 219.356C53.3748 220.023 55.2981 220.925 57.3741 221.919C60.4832 223.408 63.9209 225.099 66.7511 226.508C64.6887 227.788 62.1585 230.849 59.6711 236.633C58.7648 238.74 58.2331 240.493 57.9924 241.927C57.7617 243.301 57.7884 244.441 58.0604 245.334C58.0082 245.317 57.955 245.299 57.9009 245.281C56.4369 244.791 54.4711 243.968 52.2941 242.976C47.9898 241.014 42.9674 238.442 39.618 236.65C39.514 236.548 39.3237 236.292 39.1454 235.803C38.949 235.264 38.7952 234.516 38.7773 233.57C38.7416 231.684 39.2476 229.045 40.9779 225.813ZM60.9489 247.387C60.6944 247.603 60.3978 247.685 60.1929 247.717C59.9041 247.762 59.5984 247.745 59.3178 247.707C58.7487 247.631 58.0424 247.437 57.2667 247.178C55.7009 246.654 53.6586 245.796 51.4646 244.796C47.0674 242.791 41.9507 240.168 38.5809 238.364L38.5101 238.326L38.4463 238.277C37.9355 237.887 37.5392 237.236 37.2665 236.488C36.9845 235.715 36.7992 234.744 36.7777 233.608C36.7345 231.331 37.3477 228.356 39.2148 224.869C40.8285 221.855 42.7419 219.651 44.5376 218.228C45.4344 217.518 46.3168 216.99 47.1324 216.659C47.9306 216.335 48.7456 216.167 49.4719 216.283C49.79 216.334 50.2598 216.505 50.7461 216.698C51.2716 216.907 51.9339 217.191 52.6933 217.529C54.2139 218.207 56.1563 219.118 58.2381 220.115C62.4034 222.111 67.1515 224.464 70.2529 226.022L70.2247 226.078C70.9336 226.501 71.2706 227.279 71.2235 228.092L69.2269 227.976C69.2378 227.788 69.1863 227.783 69.1685 227.782C69.1675 227.782 69.1666 227.782 69.1658 227.781C69.1651 227.781 69.1645 227.781 69.164 227.781C69.0497 227.744 68.6203 227.709 67.8352 228.189C66.2901 229.133 63.9519 231.741 61.5084 237.423C60.6451 239.43 60.1717 241.025 59.9648 242.258C59.756 243.501 59.8288 244.315 59.9892 244.8C60.142 245.262 60.3449 245.364 60.4403 245.393C60.5675 245.431 60.8182 245.429 61.1658 245.212L62.2243 246.909C61.8391 247.149 61.4033 247.324 60.9489 247.387Z" fill="black"/>
<path d="M67.6311 248.932L60.7729 245.643C60.3808 245.28 60.1254 244.542 60.0988 243.854C60.0696 243.098 60.951 234.594 67.5983 228.514C67.8868 228.15 68.85 227.633 70.3953 228.481C72.0511 229.39 74.7902 230.656 76.0219 231.213" stroke="black" stroke-width="2"/>
<path fill-rule="evenodd" clip-rule="evenodd" d="M243.739 150.052C247.049 151.724 249.056 153.42 250.196 154.864C251.35 156.324 251.566 157.455 251.485 158.048C251.485 158.048 251.485 158.048 251.485 158.048C251.485 158.052 251.481 158.072 251.471 158.114C251.459 158.161 251.441 158.223 251.417 158.302C251.368 158.458 251.298 158.661 251.207 158.907C251.025 159.4 250.768 160.04 250.452 160.797C249.821 162.308 248.965 164.252 248.02 166.351C246.605 169.495 244.996 172.972 243.655 175.834C242.327 173.803 239.206 171.346 233.365 168.996C231.237 168.14 229.472 167.65 228.033 167.444C226.654 167.245 225.515 167.299 224.629 167.592C224.644 167.54 224.661 167.486 224.677 167.431C225.132 165.956 225.909 163.971 226.849 161.772C228.708 157.422 231.161 152.34 232.872 148.949C232.973 148.843 233.224 148.646 233.709 148.457C234.243 148.247 234.987 148.076 235.932 148.036C237.816 147.955 240.467 148.399 243.739 150.052ZM222.644 170.528C222.422 170.279 222.334 169.985 222.297 169.781C222.244 169.493 222.255 169.187 222.286 168.905C222.348 168.335 222.525 167.624 222.766 166.842C223.253 165.265 224.062 163.203 225.01 160.986C226.91 156.542 229.411 151.365 231.135 147.953L231.171 147.881L231.218 147.816C231.596 147.296 232.238 146.885 232.979 146.594C233.746 146.294 234.711 146.086 235.846 146.038C238.122 145.94 241.11 146.483 244.641 148.267C248.133 150.031 250.398 151.893 251.766 153.624C253.12 155.339 253.646 157.002 253.467 158.318C253.424 158.637 253.264 159.11 253.083 159.601C252.887 160.132 252.618 160.8 252.298 161.568C251.656 163.104 250.792 165.067 249.844 167.172C247.948 171.384 245.708 176.186 244.224 179.324L244.167 179.297C243.761 180.015 242.991 180.371 242.178 180.343L242.246 178.344C242.434 178.351 242.438 178.299 242.439 178.281C242.439 178.279 242.439 178.278 242.439 178.277C242.474 178.162 242.498 177.731 242 176.958C241.02 175.436 238.357 173.16 232.619 170.852C230.592 170.036 228.986 169.601 227.749 169.423C226.5 169.244 225.689 169.336 225.208 169.508C224.75 169.672 224.652 169.877 224.625 169.973C224.59 170.101 224.598 170.351 224.823 170.694L223.152 171.792C222.903 171.413 222.718 170.981 222.644 170.528Z" fill="black"/>
<path d="M221.257 177.244L224.383 170.31C224.737 169.909 225.468 169.636 226.156 169.593C226.91 169.546 235.433 170.226 241.669 176.727C242.04 177.007 242.579 177.958 241.768 179.523C240.899 181.199 239.698 183.968 239.17 185.212" stroke="black" stroke-width="2"/>
<path d="M224.943 217.235C179.721 281.735 181.866 276.668 179.721 281.735L186.337 285.617C186.824 283.116 215.298 242.269 224.943 217.235Z" fill="black" stroke="black" stroke-width="2"/>
<circle cx="181.113" cy="287.126" r="8.36438" transform="rotate(-20.6479 181.113 287.126)" fill="black"/>
<circle cx="180.973" cy="287.434" r="5.25761" transform="rotate(-20.6479 180.973 287.434)" fill="#B8B8B8"/>
<path d="M633.461 318.748C648.872 277.075 689.745 198.872 729.941 219.452C780.185 245.176 810.464 152.487 786.949 126.81C763.435 101.133 700.247 138.61 684.472 110.412C668.697 82.2137 644.971 27.8231 621.904 40.4088C598.836 52.9945 547.971 77.7735 597.955 181.687C637.942 264.817 638.287 307.699 633.461 318.748Z" stroke="black" stroke-width="8"/>
<circle cx="623.684" cy="368.022" r="52" transform="rotate(10.2879 623.684 368.022)" fill="#F80082" stroke="#F80082" stroke-width="6"/>
<path d="M577.217 826.558L592.078 793.637L641.46 815.928L626.599 848.85" stroke="#F80082" stroke-width="4"/>
<path d="M601.483 797.884L611.037 776.72C596.672 754.195 568.971 694.324 573.088 635.038C578.233 560.932 605.832 499.792 617.509 473.925L641.024 484.541L646.332 472.783L853.266 566.195L847.959 577.953L864.419 585.384C855.954 614.587 828.801 683.1 787.91 723.519C747.018 763.939 676.471 786.443 643.958 791.581L634.404 812.745" stroke="#F80082" stroke-width="4"/>
<path d="M555.906 842.414L564.398 823.602L641.999 858.632L633.507 877.444M530.039 830.738L654.67 886.998L645.117 908.161C649.188 913.774 654.48 928.806 643.075 944.039L494.929 877.164C496.545 869.402 503.92 853.482 520.486 851.902L530.039 830.738Z" stroke="#F80082" stroke-width="4"/>
<path d="M648.559 501.146L622.692 489.47C568.343 609.868 586.523 703.373 602.406 735.076C588.978 629.373 687.555 552.718 738.522 527.603L653.867 489.389L648.559 501.146Z" fill="black"/>
<path d="M522.82 493.456L595.485 526.257C593.661 531.294 589.977 541.72 589.831 543.135C589.686 544.55 550.146 525.837 530.393 516.304C517.109 536.624 507.331 597.181 574.5 676.846C575.103 682.141 576.903 694.205 579.282 700.108C488.671 604.856 490.692 537.454 522.82 493.456Z" stroke="#F80082" stroke-width="4"/>
<path d="M928.241 666.29L848.14 629.515C845.569 634.214 841.704 644.867 840.739 645.911C839.774 646.956 885.881 667.215 906.096 675.723C899.643 699.127 860.693 746.515 756.516 748.833C752.147 751.883 741.907 758.513 735.906 760.633C867.28 765.587 916.493 719.488 928.241 666.29Z" stroke="#F80082" stroke-width="4"/>
<path d="M942.047 1232.21C1032.07 1163.44 1132.08 1279.55 1162.56 1347.18C1133.29 1263.38 1060.09 1089.68 1001.46 1065.31C928.172 1034.85 866.134 1136.67 809.923 1195.97C753.712 1255.28 829.523 1318.17 942.047 1232.21Z" stroke="black" stroke-width="8"/>
<circle cx="1184.58" cy="1410.3" r="71.1599" transform="rotate(-20.7587 1184.58 1410.3)" fill="#F80082" stroke="#F80082" stroke-width="6"/>
<path d="M380.904 484.2L383.706 482.102C385.972 482.904 391.143 485.529 393.699 489.612L425.759 532.442C426.958 534.043 429.773 538.805 431.447 545.047L427.845 547.743M375.209 479.094L356.298 491.377C367.731 515.829 396.496 557.094 413.526 567.83L430.64 553.146C417.952 540.368 389.102 507.667 375.209 479.094Z" stroke="black" stroke-width="4"/>
<path d="M403.386 501.721L413.793 493.93C413.394 493.397 412.715 491.989 413.196 490.63C413.677 489.27 419.928 492.669 422.993 494.539L429.884 503.745L432.075 513.347C432.208 514.081 432.053 515.337 429.474 514.045C428.475 513.544 428.475 513.544 427.875 512.744L417.468 520.534" stroke="black" stroke-width="4"/>
<path d="M409.922 570.527C386.179 552.825 362.276 512.716 353.293 494.874C347.295 492.868 319.776 512.676 306.767 522.83C302.903 547.707 280.138 553.172 269.239 552.795C232.945 581.628 158.397 640.512 150.552 645.384C142.707 650.257 142.806 658.677 143.836 662.278C154.007 693.387 176.388 714.108 188.78 722.32C198.694 728.889 209.312 723.606 213.382 720.143L330.662 634.853C343.396 598.465 366.012 610.322 370.287 607.69C377.812 603.057 399.846 580.984 409.922 570.527Z" stroke="black" stroke-width="4"/>
<path d="M229.681 1317.37L229.663 1317.4L229.647 1317.43C226.352 1322.64 223.685 1325.94 221.667 1328.43C220.961 1329.3 220.335 1330.07 219.789 1330.8C218.776 1332.14 217.896 1333.49 217.598 1335.03C217.278 1336.67 217.676 1338.19 218.489 1339.78C225.582 1353.58 228.435 1369.72 225.639 1386.22C218.773 1426.74 180.432 1454.02 140.008 1447.17C99.5835 1440.32 72.371 1401.93 79.2368 1361.41C81.8196 1346.17 87.5278 1333.54 98.604 1322.6L98.6691 1322.54L98.7281 1322.47C100.603 1320.24 101.806 1318.16 102.347 1315.98C102.894 1313.78 102.719 1311.68 102.159 1309.5C101.611 1307.37 100.66 1305.06 99.5825 1302.47C99.528 1302.34 99.4729 1302.2 99.4175 1302.07C98.3652 1299.54 97.1614 1296.64 95.939 1293.14L88.5489 1269.18L88.5331 1269.13L88.5144 1269.08C87.3342 1265.88 86.8505 1260.76 87.5704 1254.88C88.2856 1249.03 90.168 1242.6 93.5369 1236.8C96.8995 1231.02 101.725 1225.89 108.34 1222.55C114.939 1219.22 123.451 1217.59 134.31 1219.01L219.88 1233.51C228.076 1234.9 239.648 1241.74 246.898 1252.01C254.039 1262.12 256.894 1275.39 248.199 1290.01L229.681 1317.37Z" stroke="black" stroke-width="4"/>
<path d="M222.2 872.142L222.193 872.172L222.186 872.203C220.815 878.755 219.35 883.121 218.245 886.413C217.86 887.562 217.518 888.579 217.24 889.514C216.721 891.257 216.351 892.932 216.621 894.56C216.909 896.299 217.861 897.666 219.268 898.951C231.7 910.312 240.709 925.653 244.114 943.494C252.479 987.317 223.855 1029.59 180.198 1037.92C136.541 1046.25 94.3598 1017.5 85.9951 973.676C82.8496 957.197 83.8646 942.177 90.9802 926.855L91.0188 926.773L91.0496 926.686C92.1049 923.735 92.5301 921.193 92.2598 918.811C91.9872 916.407 91.0288 914.362 89.6487 912.378C88.2973 910.436 86.4691 908.457 84.3943 906.228C84.2892 906.115 84.1833 906.001 84.0765 905.887C82.0532 903.714 79.7351 901.225 77.1677 898.124L60.6239 876.594L60.5911 876.551L60.556 876.51C58.1266 873.678 55.6937 868.637 54.1953 862.372C52.7058 856.144 52.1838 848.883 53.4145 841.702C54.6431 834.533 57.6109 827.475 63.0792 821.557C68.536 815.651 76.5832 810.771 88.1559 808.103L180.389 790.498C189.27 788.803 203.629 791.388 214.892 799.096C225.997 806.696 233.944 819.152 230.636 837.358L222.2 872.142Z" stroke="black" stroke-width="4"/>
<path d="M536.12 1147.17L536.113 1147.2L536.107 1147.23C534.496 1155.39 532.73 1160.86 531.407 1164.95C530.949 1166.37 530.544 1167.62 530.217 1168.77C529.6 1170.92 529.196 1172.91 529.532 1174.81C529.888 1176.81 531.006 1178.4 532.719 1179.93C548.344 1193.88 559.765 1212.83 564.252 1234.96C575.273 1289.33 540.264 1342.3 486.073 1353.29C431.882 1364.27 379.008 1329.12 367.988 1274.75C363.847 1254.32 364.894 1235.61 373.536 1216.44L373.574 1216.36L373.604 1216.27C374.855 1212.65 375.325 1209.57 374.97 1206.72C374.611 1203.85 373.437 1201.41 371.731 1199.02C370.054 1196.67 367.789 1194.27 365.183 1191.53C365.051 1191.39 364.918 1191.25 364.784 1191.11C362.247 1188.45 359.332 1185.39 356.099 1181.58L335.311 1155.16L335.277 1155.12L335.242 1155.08C332.128 1151.53 329.019 1145.25 327.066 1137.47C325.121 1129.74 324.367 1120.69 325.801 1111.72C327.234 1102.75 330.842 1093.88 337.601 1086.4C344.348 1078.94 354.334 1072.74 368.708 1069.25L482.657 1046.15C493.764 1043.9 511.705 1046.93 525.851 1056.38C539.838 1065.71 549.964 1081.19 546.081 1103.99L536.12 1147.17Z" stroke="black" stroke-width="4"/>
<path d="M1032.05 1135.35C1013.79 1128.51 1011.76 1111.8 1013.79 1098.13C1014.03 1096.96 1014.3 1095.69 1014.59 1094.33L858.584 1053.73L845.65 1068.5C833.477 1079.89 817.501 1076.86 803.806 1073.82L758.158 1063.18C750.55 1060.9 738.682 1061.66 736.856 1040.39C735.56 1025.3 735.742 1015.2 737.358 1003.17C738.263 996.421 739.62 989.066 741.421 979.882C745.073 961.254 754.804 945.433 765.005 932.518C766.499 930.628 768.024 928.981 769.57 927.551C780.451 917.482 792.325 918.147 800.763 920.364L850.215 932.518C863.909 936.317 872.278 936.317 873.8 947.712V979.882L1030.89 1022.16C1031.29 1020.58 1031.67 1019.06 1032.05 1017.6C1034.29 1008.85 1037.44 1002.45 1040.8 997.85C1046.53 989.992 1052.87 987.374 1056.39 987.215L1123.34 1003.17C1149.51 1007.42 1154.03 1022.67 1153.01 1029.76L1152.54 1035.07L1146.93 1098.13L1143.07 1104.96L1123.34 1139.91C1114.21 1156.62 1100.01 1155.86 1090.63 1152.82L1032.05 1135.35Z" fill="white"/>
<path d="M1030.89 1022.16C1031.29 1020.58 1031.67 1019.06 1032.05 1017.6C1034.29 1008.85 1037.44 1002.45 1040.8 997.85M1030.89 1022.16L873.8 979.882M1030.89 1022.16C1026.22 1040.92 1020.42 1067.09 1016.53 1085.21M1014.59 1094.33C1014.3 1095.69 1014.03 1096.96 1013.79 1098.13C1011.76 1111.8 1013.79 1128.51 1032.05 1135.35L1090.63 1152.82C1100.01 1155.86 1114.21 1156.62 1123.34 1139.91L1143.07 1104.96M1014.59 1094.33L858.584 1053.73M1014.59 1094.33C1015.16 1091.63 1015.81 1088.56 1016.53 1085.21M873.8 979.882L869.996 978.858C868.154 981.091 866.09 983.919 864 987.215M873.8 979.882V947.712C872.278 936.317 863.909 936.317 850.215 932.518L800.763 920.364C792.325 918.147 780.451 917.482 769.57 927.551M858.584 1053.73L854.019 1052.55C849.499 1042.66 848.842 1032.17 850.352 1022.16M858.584 1053.73L845.65 1068.5C833.477 1079.89 817.501 1076.86 803.806 1073.82L758.158 1063.18C750.55 1060.9 738.682 1061.66 736.856 1040.39C735.56 1025.3 735.742 1015.2 737.358 1003.17M737.358 1003.17C738.263 996.421 739.62 989.066 741.421 979.882C745.073 961.254 754.804 945.433 765.005 932.518C766.499 930.628 768.024 928.981 769.57 927.551M737.358 1003.17L803.806 1022.16C816.577 1026.21 843.766 1031.88 850.352 1022.16M850.352 1022.16C852.373 1008.76 858.279 996.237 864 987.215M769.57 927.551L854.019 947.712C860.866 950.751 861.638 953.181 864 987.215M1143.07 1104.96L1146.93 1098.13L1152.54 1035.07M1143.07 1104.96C1135.22 1107.24 1123.34 1109.52 1103.56 1104.96L1016.53 1085.21M1040.8 997.85C1046.53 989.992 1052.87 987.374 1056.39 987.215L1123.34 1003.17C1149.51 1007.42 1154.03 1022.67 1153.01 1029.76L1152.54 1035.07M1040.8 997.85C1072.05 1004.43 1138.16 1021.1 1152.54 1035.07" stroke="#F80082" stroke-width="4"/>
<path d="M937.525 1316.98C920.4 1326.31 906.441 1316.89 897.436 1306.4C896.717 1305.46 895.932 1304.43 895.089 1303.31L762.245 1394.62L764.934 1414.07C765.573 1430.73 752.813 1440.81 741.549 1449.17L703.616 1476.7C696.912 1480.96 689.713 1490.43 672.443 1477.88C660.191 1468.97 652.677 1462.22 644.641 1453.12C640.135 1448.02 635.465 1442.17 629.704 1434.8C618.018 1419.84 612.435 1402.12 609.356 1385.96C608.906 1383.59 608.66 1381.36 608.592 1379.25C608.108 1364.44 616.387 1355.9 623.588 1350.97L665.16 1321.56C676.999 1313.7 682.48 1307.38 692.088 1313.69L716.399 1334.76L851.23 1243.73C850.297 1242.4 849.398 1241.11 848.54 1239.87C843.397 1232.44 840.623 1225.87 839.344 1220.32C837.16 1210.84 839.336 1204.34 841.52 1201.57L897.422 1161.42C917.777 1144.43 932.253 1151 936.947 1156.41L940.656 1160.25L984.629 1205.79L987.269 1213.18L1000.76 1250.98C1007.41 1268.82 997.535 1279.05 989.094 1284.16L937.525 1316.98Z" fill="white"/>
<path d="M851.23 1243.73C850.297 1242.4 849.398 1241.11 848.54 1239.87C843.397 1232.44 840.623 1225.87 839.344 1220.32M851.23 1243.73L716.399 1334.76M851.23 1243.73C862.342 1259.55 878.326 1281.06 889.472 1295.87M895.089 1303.31C895.932 1304.43 896.717 1305.46 897.436 1306.4C906.441 1316.89 920.4 1326.31 937.525 1316.98L989.094 1284.16C997.535 1279.05 1007.41 1268.82 1000.76 1250.98L987.269 1213.18M895.089 1303.31L762.245 1394.62M895.089 1303.31C893.422 1301.11 891.53 1298.61 889.472 1295.87M716.399 1334.76L713.134 1336.96C713.616 1339.82 714.401 1343.23 715.523 1346.97M716.399 1334.76L692.088 1313.69C682.48 1307.38 676.999 1313.7 665.16 1321.56L623.588 1350.97C616.387 1355.9 608.108 1364.44 608.592 1379.25M762.245 1394.62L758.358 1397.29C747.927 1394.24 739.566 1387.86 732.993 1380.16M762.245 1394.62L764.933 1414.07C765.573 1430.73 752.813 1440.81 741.549 1449.17L703.616 1476.7C696.912 1480.96 689.713 1490.43 672.443 1477.88C660.191 1468.97 652.677 1462.22 644.641 1453.12M644.641 1453.12C640.135 1448.02 635.465 1442.17 629.704 1434.8C618.018 1419.84 612.435 1402.12 609.356 1385.96C608.906 1383.59 608.66 1381.36 608.592 1379.25M644.641 1453.12L702.51 1415.34C713.936 1408.34 736.028 1391.51 732.993 1380.16M732.993 1380.16C724.192 1369.86 718.595 1357.2 715.523 1346.97M608.592 1379.25L679.133 1328.64C685.914 1325.45 688.256 1326.46 715.523 1346.97M987.269 1213.18L984.629 1205.79L940.656 1160.25M987.269 1213.18C983.855 1220.6 977.795 1231.07 961.396 1243.04L889.472 1295.87M839.344 1220.32C837.16 1210.84 839.336 1204.34 841.52 1201.57L897.422 1161.42C917.777 1144.43 932.253 1151 936.947 1156.41L940.656 1160.25M839.344 1220.32C864.79 1201.01 920.676 1161.96 940.656 1160.25" stroke="#F80082" stroke-width="4"/>
<rect x="1118.54" y="482.708" width="329.775" height="203" rx="32" transform="rotate(61.7592 1118.54 482.708)" fill="white" stroke="black" stroke-width="4"/>
<rect x="1333.01" y="72.7049" width="329.775" height="203" rx="32" transform="rotate(110.212 1333.01 72.7049)" fill="white" stroke="black" stroke-width="4"/>
<rect x="1084.2" y="168.43" width="329.775" height="203" rx="32" transform="rotate(75.7715 1084.2 168.43)" fill="white" stroke="black" stroke-width="4"/>
<rect x="1386.01" y="326.705" width="329.775" height="203" rx="32" transform="rotate(110.212 1386.01 326.705)" fill="white" stroke="black" stroke-width="4"/>
<path d="M1224.99 790.722C1285.17 793.815 1263.77 889.029 1245.55 936.249C1294.43 888.902 1319.63 745.388 1283.03 703.893C1246.43 662.398 1149.75 786.855 1224.99 790.722Z" stroke="black" stroke-width="8"/>
<circle cx="1227.23" cy="969.892" r="37.5707" transform="rotate(23.4597 1227.23 969.892)" fill="#F80082" stroke="#F80082" stroke-width="6"/>
</svg>
