<svg width="588" height="704" viewBox="0 0 588 704" fill="none" xmlns="http://www.w3.org/2000/svg">
<path d="M384.237 606.05C353.138 631.58 305.802 644.81 265.326 637.393C281.969 615.157 288.861 590.582 274.319 574.166C257.88 555.609 226.159 565.689 209.215 586.317C199.946 558.936 187.113 503.549 258.611 436.533C309.58 388.76 372.27 381.218 414.172 423.302C488.897 498.351 398.662 594.208 384.237 606.05Z" stroke="#F80082" stroke-width="4"/>
<path d="M158.621 667.291L228.698 592.662C255.04 564.457 281.938 592.706 256.1 619.154L187.48 692.679C164.911 714.358 139.267 688.37 158.621 667.291Z" stroke="#F80082" stroke-width="4"/>
<circle cx="265.781" cy="425.78" r="39.2459" transform="rotate(79.4276 265.781 425.78)" fill="#4E474E"/>
<path d="M478.066 317.359L438.175 299.581L424.321 294.117C419.602 293.058 417.533 291.27 417.088 290.508C416.913 289.219 415.178 288.541 413.804 288.253M478.066 317.359C473.694 319.575 463.496 326.064 457.676 334.289M478.066 317.359C479.972 316.281 483.37 314.627 486.653 313.623M457.676 334.289C443.897 328.575 414.725 315.885 408.273 310.835C407.522 310.61 406.036 309.977 406.104 309.243C406.188 308.324 403.822 308.875 403.433 308.067C403.045 307.258 400.149 308.532 399.261 306.441C398.372 304.351 396.755 306.825 397.315 304.098C396.406 303.91 394.555 303.223 394.423 301.975C393.884 302.233 392.73 302.589 392.419 301.942C392.03 301.134 393.928 295.599 394.429 295.182C394.931 294.766 396.108 287.002 402.263 282.174C402.718 282.268 403.604 282.701 403.514 283.68C403.401 284.905 404.406 282.374 405.351 283.852C406.232 283.78 407.994 283.976 407.993 285.334C408.519 285.473 409.506 285.993 409.746 287.027M457.676 334.289C451.138 341.603 441.369 360.555 454.598 377.848C471.136 399.465 498.369 412.201 501.208 411.54C509.908 413.177 528.801 415.324 534.773 410.818C542.237 405.186 540.629 399.169 539.35 397.968M409.746 287.027C409.781 287.177 409.8 287.338 409.8 287.51C409.798 288.869 416.868 287.862 409.746 287.027ZM412.833 288.103C413.108 288.128 413.444 288.177 413.804 288.253M539.35 397.968C538.327 397.008 535.681 393.662 534.485 392.11C531.702 383.77 524.633 365.282 518.629 358.051L511.182 346.702M539.35 397.968C532.016 412.259 524.14 412.294 502.631 407.813C481.123 403.332 466.947 386.259 455.745 372.089C446.784 360.752 455.059 344.286 460.317 337.469M511.182 346.702C497.63 345.229 468.484 341.321 460.317 337.469M511.182 346.702C511.943 346.258 514.064 342.556 516.458 331.293C518.851 320.03 521.045 317.775 521.842 318.055M460.317 337.469C465.022 330.622 470.653 326.342 472.881 325.058C475.807 321.78 486.304 316.74 491.453 316.141C495.573 315.661 513.429 317.217 521.842 318.055M521.842 318.055C526.008 315.728 525.437 313.657 524.631 312.912M524.631 312.912C523.014 315.386 497.69 313.79 492.681 312.859C491.06 312.558 488.883 312.94 486.653 313.623M524.631 312.912C518.718 306.699 501.263 297.419 478.741 310.012M478.741 310.012L486.653 313.623M478.741 310.012C464.274 305.057 434.739 294.968 432.336 294.249L419.9 290.153C419.511 289.344 418.36 287.755 416.868 287.862C415.004 287.997 414.546 285.483 413.804 288.253" stroke="black" stroke-width="4"/>
<path d="M75.7793 121.266C106.038 108.696 175.669 82.9169 212.12 80.3577M75.7793 121.266L68.5887 97.9355M75.7793 121.266C69.5027 133.782 63.8387 154.953 66.6645 178.588M212.12 80.3577L206.947 56.0629M212.12 80.3577C223.226 87.842 237.963 102.225 248.119 122.029M206.947 56.0629C194.274 50.6392 167.155 41.5807 160.068 48.7371C146.913 48.0056 117.268 50.6645 103.936 67.1525C98.9949 67.5323 85.0084 74.2207 68.5887 97.9355M206.947 56.0629C288.6 82.2034 297.408 201.177 258.597 229.899M68.5887 97.9355C9.01019 183.984 86.0337 266.068 120.414 273.174M115.021 255.677L120.414 273.174M115.021 255.677L164.18 247.04M115.021 255.677C96.8277 242.555 84.7932 227.911 77.1936 213.099M120.414 273.174C134.023 278.481 162.398 286.955 167.029 278.395M167.029 278.395L164.18 247.04M167.029 278.395C185.272 282.957 214.42 269.861 226.714 262.743M164.18 247.04L198.956 237.35M198.956 237.35C205.753 245.171 220.82 261.199 226.714 262.743M198.956 237.35L250.879 213.76M226.714 262.743C253.798 242.256 259.254 232.31 258.597 229.899M250.879 213.76L258.597 229.899M250.879 213.76C259.506 192.659 261.308 173.289 258.965 156.132M258.965 156.132C232.673 177.99 159.509 219.983 77.1936 213.099M258.965 156.132C257.24 143.5 253.268 132.068 248.119 122.029M77.1936 213.099C71.2326 201.48 68.0002 189.759 66.6645 178.588M66.6645 178.588C96.5248 161.373 174.62 125.961 248.119 122.029" stroke="#F80082" stroke-width="4"/>
<path d="M104.316 68.123C109.983 73.623 122.699 88.2998 127.499 101.5" stroke="#F80082" stroke-width="4"/>
<path d="M160.316 49.123C158.483 55.7897 155.916 73.323 160.316 90.123" stroke="#F80082" stroke-width="4"/>
</svg>
