<svg width="1233" height="463" viewBox="0 0 1233 463" fill="none" xmlns="http://www.w3.org/2000/svg">
<rect x="590" y="95" width="172" height="172" stroke="#F80082" stroke-width="14"/>
<path d="M719.57 168.24H675.41V263H654.48V168.24H620.9V149.38H654.48V131.44C654.48 107.29 667.13 93.72 694.96 93.72H740.73V112.58H697.26C681.85 112.58 675.41 119.94 675.41 134.43V149.38H719.57V168.24Z" fill="#F80082"/>
<rect x="822" y="281" width="172" height="172" stroke="#F80082" stroke-width="14"/>
<rect x="1054" y="95" width="172" height="172" stroke="#F80082" stroke-width="14"/>
<path d="M908.58 306.34V278.98H932.7V306.34H908.58ZM932.16 320.92V419.56C932.16 440.62 922.44 450.34 902.28 450.34H874.02V431.44H894.54C904.8 431.44 909.12 426.76 909.12 416.68V320.92H932.16Z" fill="#F80082"/>
<path d="M1188.51 246.26V266H1161.02C1133.99 266 1120.36 253.075 1120.36 227.225V169.18H1086.05V149.91H1120.36V99.15H1141.75V149.91H1188.51V169.18H1141.75V222.29C1141.75 239.21 1147.15 246.26 1165.72 246.26H1188.51Z" fill="#F80082"/>
<path d="M60.262 108.019C61.3731 107.807 62.4329 107.64 63.4271 107.517L76.6041 105.477M60.262 108.019C63.5394 93.6761 72.862 64.4339 92.5731 59.896M60.262 108.019C57.447 108.557 54.3027 109.392 51.063 110.571M92.5731 59.896L97.8259 69.1377C98.3335 72.474 102.28 77.297 114.002 69.8983C128.655 60.65 153.082 58.5068 167.777 61.516C182.472 64.5253 183.664 61.1967 183.876 57.6676L184.764 45.8555M92.5731 59.896L87.7099 51.2445C84.505 44.4637 89.9166 40.4681 97.2876 36.8738C111.591 29.8987 149.616 23.0915 168.242 24.3538C182.769 25.3382 185.898 30.351 185.652 34.0435L184.764 45.8555M184.764 45.8555C196.993 49.2783 222.965 61.1858 229.026 81.4335M229.026 81.4335C227.788 81.7194 226.526 82.0637 225.241 82.4703L212.467 84.4476M229.026 81.4335C231.954 80.7576 234.752 80.4078 237.418 80.3324M51.063 110.571C36.945 115.709 21.0159 127.398 22.637 149.691L17.9542 229.882C17.4432 241.516 25.5615 264.512 62.123 263.425L74.7966 261.351M51.063 110.571L74.7966 261.351M74.7966 261.351L99.5279 257.305M99.5279 257.305L76.6041 105.477M99.5279 257.305L236.386 234.911M76.6041 105.477L212.467 84.4476M212.467 84.4476L236.386 234.911M236.386 234.911L261.469 230.807M261.469 230.807L286.553 226.703C298.051 221.231 318.013 204.666 305.879 182.174L273.688 102.599C269.456 94.0358 257.005 79.7783 237.418 80.3324M261.469 230.807L237.418 80.3324M109.002 152L195.004 139.582L201.002 167C202.025 171.973 201.281 182.029 189.506 183.701L132.002 192.85C127.196 193.057 117.562 192.703 114.002 182.174L109.002 152Z" stroke="black" stroke-width="4"/>
</svg>
