<svg width="1422" height="1673" viewBox="0 0 1422 1673" fill="none" xmlns="http://www.w3.org/2000/svg">
<rect x="81.125" y="78.6294" width="388.563" height="506.972" fill="#F80082"/>
<path d="M190 192L418.769 193.167" stroke="white" stroke-width="10"/>
<path d="M349.249 192C362.095 215.136 372.372 266.839 310.711 288.566" stroke="white" stroke-width="10"/>
<path d="M356.4 589L347.264 593.067L349.906 599H356.4V589ZM320.65 508.7L329.786 504.633L327.144 498.7H320.65V508.7ZM123.75 508.7V498.7H117.256L114.614 504.633L123.75 508.7ZM88 589V599H94.4942L97.1355 593.067L88 589ZM13.75 589L4.62194 584.916L-1.67929 599H13.75V589ZM189.2 196.85V186.85H182.719L180.072 192.766L189.2 196.85ZM259.05 196.85L268.173 192.755L265.523 186.85H259.05V196.85ZM435.05 589V599H450.499L444.173 584.905L435.05 589ZM151.8 444.9L142.667 440.827L136.391 454.9H151.8V444.9ZM292.6 444.9V454.9H308.009L301.733 440.827L292.6 444.9ZM222.2 287.05L231.333 282.977L222.2 262.499L213.067 282.977L222.2 287.05ZM365.536 584.933L329.786 504.633L311.514 512.767L347.264 593.067L365.536 584.933ZM320.65 498.7H123.75V518.7H320.65V498.7ZM114.614 504.633L78.8645 584.933L97.1355 593.067L132.886 512.767L114.614 504.633ZM88 579H13.75V599H88V579ZM22.8781 593.084L198.328 200.934L180.072 192.766L4.62194 584.916L22.8781 593.084ZM189.2 206.85H259.05V186.85H189.2V206.85ZM249.927 200.945L425.927 593.095L444.173 584.905L268.173 192.755L249.927 200.945ZM435.05 579H356.4V599H435.05V579ZM151.8 454.9H292.6V434.9H151.8V454.9ZM301.733 440.827L231.333 282.977L213.067 291.123L283.467 448.973L301.733 440.827ZM213.067 282.977L142.667 440.827L160.933 448.973L231.333 291.123L213.067 282.977Z" fill="white"/>
<path d="M260.036 248.061C260.622 247.475 260.622 246.525 260.036 245.939L250.49 236.393C249.905 235.808 248.955 235.808 248.369 236.393C247.783 236.979 247.783 237.929 248.369 238.515L256.854 247L248.369 255.485C247.783 256.071 247.783 257.021 248.369 257.607C248.955 258.192 249.905 258.192 250.49 257.607L260.036 248.061ZM190 248.5H258.976V245.5H190V248.5Z" fill="white"/>
<path d="M338.75 446.75C339.526 447.04 340.39 446.646 340.68 445.87L345.406 433.224C345.696 432.448 345.302 431.584 344.526 431.294C343.75 431.004 342.886 431.398 342.596 432.174L338.395 443.415L327.154 439.214C326.378 438.924 325.514 439.318 325.224 440.094C324.934 440.87 325.328 441.734 326.104 442.024L338.75 446.75ZM266.635 289.622L337.91 445.967L340.64 444.723L269.365 288.378L266.635 289.622Z" fill="white"/>
<rect x="538.664" y="78.6294" width="388.563" height="506.972" fill="#F80082"/>
<path d="M769.146 324.061C769.731 323.475 769.731 322.525 769.146 321.939L759.6 312.393C759.014 311.808 758.064 311.808 757.478 312.393C756.893 312.979 756.893 313.929 757.478 314.515L765.964 323L757.478 331.485C756.893 332.071 756.893 333.021 757.478 333.607C758.064 334.192 759.014 334.192 759.6 333.607L769.146 324.061ZM583 324.5H768.085V321.5H583V324.5Z" fill="white"/>
<path d="M802.003 347.262C816.756 356.459 840.399 385.428 816.947 427.734" stroke="white" stroke-width="3"/>
<path d="M813.192 430.979C813.397 431.782 814.214 432.266 815.017 432.06L828.095 428.711C828.898 428.506 829.382 427.689 829.176 426.886C828.971 426.084 828.153 425.6 827.351 425.805L815.726 428.782L812.749 417.157C812.544 416.354 811.727 415.87 810.924 416.076C810.121 416.281 809.637 417.098 809.843 417.901L813.192 430.979ZM817.57 428.612L817.978 427.923L815.397 426.394L814.988 427.084L817.57 428.612ZM814.988 427.084L813.354 429.843L815.935 431.371L817.57 428.612L814.988 427.084Z" fill="white"/>
<path d="M523.9 677H513.9V687H523.9V677ZM523.9 286.5V276.5H513.9V286.5H523.9ZM804.95 471.3L801.631 461.867L773.467 471.777L801.918 480.829L804.95 471.3ZM596.5 349.2V339.2H586.5V349.2H596.5ZM596.5 444.9H586.5V454.9H596.5V444.9ZM596.5 507.05V497.05H586.5V507.05H596.5ZM596.5 614.3H586.5V624.3H596.5V614.3ZM533.9 677V286.5H513.9V677H533.9ZM523.9 296.5H732.9V276.5H523.9V296.5ZM732.9 296.5C774.135 296.5 804.292 306.093 823.967 322.273C843.357 338.221 853.8 361.578 853.8 392.1H873.8C873.8 356.622 861.418 327.179 836.671 306.827C812.208 286.707 776.915 276.5 732.9 276.5V296.5ZM853.8 392.1C853.8 429.509 828.648 452.361 801.631 461.867L808.269 480.733C840.652 469.339 873.8 440.491 873.8 392.1H853.8ZM801.918 480.829C834.664 491.248 862.6 519.149 862.6 565.35H882.6C882.6 509.251 847.836 474.452 807.982 461.771L801.918 480.829ZM862.6 565.35C862.6 597.058 851.956 621.966 831.751 639.128C811.319 656.484 779.829 667 736.2 667V687C782.771 687 819.481 675.791 844.699 654.372C870.144 632.759 882.6 601.842 882.6 565.35H862.6ZM736.2 667H523.9V687H736.2V667ZM724.65 339.2H596.5V359.2H724.65V339.2ZM586.5 349.2V444.9H606.5V349.2H586.5ZM596.5 454.9H724.65V434.9H596.5V454.9ZM724.65 454.9C746.79 454.9 765.172 450.782 778.198 440.906C791.752 430.63 797.9 415.38 797.9 397.05H777.9C777.9 410.62 773.598 419.295 766.115 424.969C758.103 431.043 744.86 434.9 724.65 434.9V454.9ZM797.9 397.05C797.9 378.179 791.615 362.865 777.9 352.713C764.787 343.005 746.411 339.2 724.65 339.2V359.2C744.689 359.2 757.938 362.82 766 368.787C773.46 374.31 777.9 382.921 777.9 397.05H797.9ZM727.4 497.05H596.5V517.05H727.4V497.05ZM586.5 507.05V614.3H606.5V507.05H586.5ZM596.5 624.3H727.4V604.3H596.5V624.3ZM727.4 624.3C752.348 624.3 772.455 619.473 786.47 608.395C800.943 596.956 807.25 580.214 807.25 560.4H787.25C787.25 575.786 782.557 585.994 774.068 592.705C765.12 599.777 750.302 604.3 727.4 604.3V624.3ZM807.25 560.4C807.25 540.191 800.584 523.56 785.924 512.37C771.787 501.579 751.736 497.05 727.4 497.05V517.05C749.814 517.05 764.688 521.321 773.789 528.268C782.366 534.815 787.25 544.859 787.25 560.4H807.25Z" fill="white"/>
<rect x="996.203" y="78.6294" width="388.563" height="506.972" fill="#F80082"/>
<path d="M1116 367.03L1334.42 167" stroke="white" stroke-width="10"/>
<path d="M1267.17 230.803C1274.64 238.658 1286.72 259.428 1275.22 279.661" stroke="white" stroke-width="10"/>
<path d="M1241.82 308.096C1241.86 307.269 1241.23 306.561 1240.4 306.515L1226.93 305.762C1226.1 305.716 1225.39 306.349 1225.34 307.177C1225.3 308.004 1225.93 308.712 1226.76 308.758L1238.74 309.427L1238.07 321.408C1238.02 322.235 1238.66 322.943 1239.49 322.989C1240.31 323.035 1241.02 322.402 1241.07 321.575L1241.82 308.096ZM1144 396.161L1241.32 309.131L1239.32 306.894L1142 393.924L1144 396.161Z" fill="white"/>
<path d="M1240.34 533.677C1241.16 533.649 1241.81 532.955 1241.79 532.127L1241.33 518.635C1241.31 517.807 1240.61 517.158 1239.78 517.186C1238.96 517.214 1238.31 517.907 1238.34 518.735L1238.74 530.729L1226.74 531.13C1225.92 531.158 1225.27 531.852 1225.3 532.68C1225.32 533.508 1226.02 534.156 1226.84 534.129L1240.34 533.677ZM1143.91 444.096L1239.26 533.273L1241.31 531.082L1145.95 441.904L1143.91 444.096Z" fill="white"/>
<path d="M1221.54 559L1214.65 566.248L1217.55 569H1221.54V559ZM1090.86 434.8L1097.75 427.552L1080.86 411.5V434.8H1090.86ZM1090.86 559V569H1100.86V559H1090.86ZM1022.82 559H1012.82V569H1022.82V559ZM1022.82 161.56V151.56H1012.82V161.56H1022.82ZM1090.86 161.56H1100.86V151.56H1090.86V161.56ZM1090.86 397H1080.86V419.253L1097.5 404.478L1090.86 397ZM1216.14 285.76V275.76H1212.34L1209.5 278.282L1216.14 285.76ZM1306.32 285.76L1312.91 293.277L1332.88 275.76H1306.32V285.76ZM1161.06 413.2L1154.47 405.683L1146.25 412.891L1154.16 420.435L1161.06 413.2ZM1313.88 559V569H1338.85L1320.78 551.765L1313.88 559ZM1228.43 551.752L1097.75 427.552L1083.97 442.048L1214.65 566.248L1228.43 551.752ZM1080.86 434.8V559H1100.86V434.8H1080.86ZM1090.86 549H1022.82V569H1090.86V549ZM1032.82 559V161.56H1012.82V559H1032.82ZM1022.82 171.56H1090.86V151.56H1022.82V171.56ZM1080.86 161.56V397H1100.86V161.56H1080.86ZM1097.5 404.478L1222.78 293.238L1209.5 278.282L1084.22 389.522L1097.5 404.478ZM1216.14 295.76H1306.32V275.76H1216.14V295.76ZM1299.73 278.243L1154.47 405.683L1167.65 420.717L1312.91 293.277L1299.73 278.243ZM1154.16 420.435L1306.98 566.235L1320.78 551.765L1167.96 405.965L1154.16 420.435ZM1313.88 549H1221.54V569H1313.88V549Z" fill="white"/>
<path d="M401.377 934.866L596.894 1027.13L576.253 981.858C565.932 981.285 557.905 981.858 547.585 970.969C539.328 962.259 541.086 949.766 542.998 944.608L465.593 909.078L435.779 895.325V758.362C435.779 738.473 442 730.973 451 719.473C460 707.973 484.132 682.908 498.275 670.109C512.418 657.311 583.36 605.545 662 589.973C712.5 579.973 743.324 579.596 795.5 586.473C839.076 592.216 874.5 605.363 902 619.106C913.467 624.837 939.066 638.336 971.5 669.473C996.619 693.587 1014.3 716.91 1020.61 726.27C1026.92 735.63 1032.46 752.058 1030.93 757.789V894.752L925.432 945.181C928.184 977.273 903.644 983.386 891.03 982.431L873.255 1024.84L1060.75 938.305C1078.63 936.471 1083.11 919.202 1083.11 910.797V846.614V765.238C1083.11 743.462 1080.81 727.416 1076.23 718.82L1058 689.973L1038.96 665.525C1024.24 648.333 980.704 606.613 924.285 577.272C867.866 547.931 796.425 532 733.355 532C659.964 532 616.388 541.473 544.718 577.272C467.538 615.824 440.5 644.336 413.5 679.973C392.155 708.145 383.602 737.349 383.602 748.619V836.872V897.617C379.933 923.29 393.923 933.147 401.377 934.866Z" fill="white"/>
<path d="M572.239 921.686C562.148 921.227 555.421 926.843 553.318 929.709L454.126 883.863V771.542C451.374 757.789 455.273 748.62 457.566 745.754C468.46 727.989 469.607 727.416 491.968 701.055C509.857 679.966 552.936 653.299 572.239 642.602C589.211 631.599 632.06 617.387 651.364 611.656C665.507 607.645 705.929 597.18 744 599.473C791.589 602.338 807.745 602.657 841 612.973C874.255 623.288 896 636.473 906 643.473C910.54 646.651 924.285 654.973 944 669.473C958 682.473 969 692.973 981.048 707.359C993.096 721.745 1006.74 737.808 1009 740.973C1011.5 744.473 1013 748.473 1013.73 752.631V883.863L913.964 929.136C913.964 923.634 904.791 921.877 900.204 921.686H860.068V763.519H607.788V921.686H572.239Z" fill="white"/>
<path d="M636.456 792.173V921.686H830.827V792.173H636.456Z" fill="white"/>
<path d="M567.079 965.812H591.734C603.01 986.251 627.053 1034.12 633.016 1062.09C640.47 1097.04 639.323 1110.8 643.91 1146.33C647.579 1174.75 642.381 1208.6 639.323 1221.97L662.257 1217.96V1208.79L673.725 1195.61L688.632 1212.8L720.167 1211.08L733.928 1195.61L746.542 1211.08L779.797 1212.8L792.984 1195.61L806.745 1208.79V1217.96L827.96 1221.97C824.902 1208.6 819.933 1172.12 824.52 1133.15C830.253 1084.44 830.827 1103.35 834.267 1066.67C837.019 1037.33 863.699 987.206 876.696 965.812H892.75C898.484 966.003 909.951 963.176 909.951 950.339C909.951 937.502 894.279 936.967 886.443 938.305H571.093C566.697 938.305 557.79 940.826 557.332 950.912C556.873 960.998 563.639 965.048 567.079 965.812Z" fill="white"/>
<path d="M401.377 934.866L596.894 1027.13L576.253 981.858C565.932 981.285 557.905 981.858 547.585 970.969C539.328 962.259 541.086 949.766 542.998 944.608L465.593 909.078L435.779 895.325V758.362C435.779 738.473 442 730.973 451 719.473C460 707.973 484.132 682.908 498.275 670.109C512.418 657.311 583.36 605.545 662 589.973C712.5 579.973 743.324 579.596 795.5 586.473C839.076 592.216 874.5 605.363 902 619.106C913.467 624.837 939.066 638.336 971.5 669.473C996.619 693.587 1014.3 716.91 1020.61 726.27C1026.92 735.63 1032.46 752.058 1030.93 757.789V894.752L925.432 945.181C928.184 977.273 903.644 983.386 891.03 982.431L873.255 1024.84L1060.75 938.305C1078.63 936.471 1083.11 919.202 1083.11 910.797V846.614V765.238C1083.11 743.462 1080.81 727.416 1076.23 718.82L1058 689.973L1038.96 665.525C1024.24 648.333 980.704 606.613 924.285 577.272C867.866 547.931 796.425 532 733.355 532C659.964 532 616.388 541.473 544.718 577.272C467.538 615.824 440.5 644.336 413.5 679.973C392.155 708.145 383.602 737.349 383.602 748.619V836.872V897.617C379.933 923.29 393.923 933.147 401.377 934.866Z" stroke="#F80082" stroke-width="8"/>
<path d="M572.239 921.686C562.148 921.227 555.421 926.843 553.318 929.709L454.126 883.863V771.542C451.374 757.789 455.273 748.62 457.566 745.754C468.46 727.989 469.607 727.416 491.968 701.055C509.857 679.966 552.936 653.299 572.239 642.602C589.211 631.599 632.06 617.387 651.364 611.656C665.507 607.645 705.929 597.18 744 599.473C791.589 602.338 807.745 602.657 841 612.973C874.255 623.288 896 636.473 906 643.473C910.54 646.651 924.285 654.973 944 669.473C958 682.473 969 692.973 981.048 707.359C993.096 721.745 1006.74 737.808 1009 740.973C1011.5 744.473 1013 748.473 1013.73 752.631V883.863L913.964 929.136C913.964 923.634 904.791 921.877 900.204 921.686H860.068V763.519H607.788V921.686H572.239Z" stroke="#F80082" stroke-width="8"/>
<path d="M636.456 792.173V921.686H830.827V792.173H636.456Z" stroke="#F80082" stroke-width="8"/>
<path d="M567.079 965.812H591.734C603.01 986.251 627.053 1034.12 633.016 1062.09C640.47 1097.04 639.323 1110.8 643.91 1146.33C647.579 1174.75 642.381 1208.6 639.323 1221.97L662.257 1217.96V1208.79L673.725 1195.61L688.632 1212.8L720.167 1211.08L733.928 1195.61L746.542 1211.08L779.797 1212.8L792.984 1195.61L806.745 1208.79V1217.96L827.96 1221.97C824.902 1208.6 819.933 1172.12 824.52 1133.15C830.253 1084.44 830.827 1103.35 834.267 1066.67C837.019 1037.33 863.699 987.206 876.696 965.812H892.75C898.484 966.003 909.951 963.176 909.951 950.339C909.951 937.502 894.279 936.967 886.443 938.305H571.093C566.697 938.305 557.79 940.826 557.332 950.912C556.873 960.998 563.639 965.048 567.079 965.812Z" stroke="#F80082" stroke-width="8"/>
<path d="M913.42 1360.37C925.603 1346.65 952.461 1303.72 962.427 1241.75M877.95 1567.22L912.602 1382.6C930.903 1364.51 968.708 1311.8 973.515 1245.67C987.2 1312.86 1040.63 1414.39 1144.89 1283C1135.36 1320.65 1122.23 1402.9 1145.96 1430.69L1108.53 1616.09L877.95 1567.22Z" stroke="black" stroke-width="8"/>
<path d="M1159.17 1284.03C1150.21 1316.52 1136.93 1387.41 1155.5 1411.04" stroke="black" stroke-width="8"/>
<path d="M987.798 1246.69C997.561 1300.98 1040.14 1383.13 1132.35 1277.49" stroke="black" stroke-width="8"/>
<path d="M458.134 1242L136 1441.46L240.22 1620L561 1423.33L458.134 1242Z" fill="#F80082" stroke="#F80082" stroke-width="7"/>
<ellipse cx="328.195" cy="1399.62" rx="10.828" ry="11.1587" fill="white"/>
<ellipse cx="366.094" cy="1466.57" rx="10.828" ry="11.1587" fill="white"/>
<path d="M245.63 1579.55L176.602 1456.8L286.235 1391.25L353.91 1512.6L245.63 1579.55Z" fill="white" stroke="#F80082" stroke-width="7"/>
<path d="M416.795 1476.47L346.962 1354.21L456.162 1287.89L524.633 1408.76L416.795 1476.47Z" fill="white" stroke="#F80082" stroke-width="7"/>
<path d="M1310.15 1015.45C1327.13 1035.89 1322.91 1050.02 1316.07 1066.02C1310.75 1078.46 1288.52 1109.77 1275.92 1123.26L1266.66 1159.25L1170.18 1137.56C1172.64 1124.69 1177.57 1098.29 1177.64 1095.71C1177.71 1092.48 1166.6 1070.23 1164.95 1057.91C1163.63 1048.05 1165.46 1039.15 1166.54 1035.94M1310.15 1015.45L1337.87 882.905C1344.24 856.173 1309 842.405 1301.27 871.691L1276.65 987.253L1278.08 959.62C1277.45 939.556 1242.86 930.632 1241.03 965.722M1310.15 1015.45L1297.39 1005.58M1297.39 1005.58L1276.5 989.429C1265.84 984.21 1258.87 983.713 1254.5 985.949M1297.39 1005.58C1293.23 1009.31 1283.88 1016.24 1279.8 1014.08C1275.71 1011.91 1261.23 994.423 1254.5 985.949M1254.5 985.949C1245.67 990.47 1239.9 1006.02 1250.64 1016.62L1267.61 1037.07C1252.41 1045.95 1244.81 1040.26 1241.4 1031.35M1241.03 965.722C1240.02 975.844 1239.42 990.974 1239.07 1013.76C1238.78 1019.04 1239.28 1025.82 1241.4 1031.35M1241.03 965.722C1240.6 945.806 1199.37 938.487 1198.06 970.755L1198.39 975.84M1241.4 1031.35C1222.18 1052.32 1208.97 1041.76 1203.41 1031.65M1198.39 975.84L1201.86 1028.39C1202.29 1029.44 1204.94 1034.93 1203.41 1031.65M1198.39 975.84C1197.68 959.107 1166.13 953.831 1163.04 975.096L1163.69 1029.43C1164.21 1034.61 1165.79 1038.72 1166.54 1035.94M1203.41 1031.65C1191.62 1058.95 1172.28 1045.79 1166.54 1035.94M1262.13 1058.33C1262 1050.28 1266.87 1034.59 1287.35 1036.23" stroke="#F80082" stroke-width="8"/>
<path d="M1303.91 919.012L1316.35 922.221" stroke="#F80082" stroke-width="5"/>
<path d="M1214.01 989.567L1226.83 988.689" stroke="#F80082" stroke-width="5"/>
<path d="M1174.84 993.559L1187.65 992.681" stroke="#F80082" stroke-width="5"/>
<path d="M1297.92 924.519L1319.3 930.034" stroke="#F80082" stroke-width="5"/>
<path d="M1210.07 996.677L1232.1 995.168" stroke="#F80082" stroke-width="5"/>
<path d="M1170.89 1000.67L1192.92 999.161" stroke="#F80082" stroke-width="5"/>
<path d="M1265.23 1169.76L1275.58 1172.02L1278.23 1161.76L1286.47 1129.8C1292.98 1121.59 1302.17 1109.51 1310.31 1097.7C1314.7 1091.35 1318.88 1084.94 1322.2 1079.18C1325.34 1073.74 1328.31 1067.86 1329.48 1062.88C1329.62 1062.29 1329.76 1061.69 1329.91 1061.09C1331.58 1054.02 1333.42 1046.26 1332.63 1037.98C1331.84 1029.7 1328.61 1021.74 1322.53 1012.77L1348.9 881.8C1353.62 862.937 1343.82 846.984 1328.99 842.439C1321.67 840.196 1313.41 840.922 1306.24 845.432C1299.06 849.942 1294 857.564 1291.49 867.318L1291.43 867.545L1291.38 867.775L1276.94 935.584C1272.23 932.484 1266.77 930.758 1261.81 930.4C1255.35 929.933 1248.19 931.45 1242.27 936.037C1241 937.024 1239.83 938.117 1238.77 939.309C1238.64 939.247 1238.52 939.186 1238.39 939.126C1232.43 936.29 1225.38 934.832 1218.49 935.074C1211.64 935.315 1204.05 937.292 1197.9 942.361C1195.61 944.246 1193.66 946.449 1192.08 948.936C1188.49 947.676 1184.69 947.055 1180.98 947.054C1174.72 947.053 1167.81 948.828 1162.17 953.433C1156.28 958.248 1152.72 965.401 1152.35 974.082L1152.34 974.369L1152.35 974.657L1152.91 1032.07L1152.94 1035.28L1154.7 1037.97C1154.77 1038.09 1154.85 1038.21 1154.93 1038.33C1152.72 1046.07 1151.68 1057.39 1156.02 1069.39C1159.98 1080.3 1164.08 1091.02 1166.42 1097.02L1159.6 1135.9L1157.77 1146.29L1168.09 1148.54L1265.23 1169.76Z" stroke="#F80082" stroke-width="22"/>
<path d="M104.706 1116.67C111.48 1108.07 137.989 1079.02 150.398 1065.56C148.662 1082.84 154.116 1092.71 170.739 1095.12C188.947 1097.76 215.156 1092.48 246.782 1077.41C270.257 1066.23 287.298 1051.98 299.917 1036.15C313.63 1018.95 303.879 1006.62 292.012 995.131C298.861 994.588 319.924 992.163 349.657 989.636C372.605 987.685 374.628 1003.2 368.564 1011.92C350.333 1035.41 309.857 1089.22 293.805 1116.53C277.753 1143.84 237.808 1143.67 219.841 1140.18C188.858 1138.87 124.371 1136.28 114.287 1136.43C101.683 1136.62 96.2393 1127.41 104.706 1116.67Z" stroke="#F80082" stroke-width="8"/>
<path d="M144.438 1038.16L140.475 994.43C192.989 1000.95 221.834 977.304 233.987 946.603L270.309 979.906C281.089 991.026 271.91 998.461 261.453 1009.23C246.42 1024.71 220.999 1040.57 210.873 1043.82C200.747 1047.06 176.911 1053.48 162.574 1053.16C148.238 1052.84 144.51 1043.03 144.438 1038.16Z" stroke="#F80082" stroke-width="8"/>
<path d="M129.202 905.022L135.877 952.697C172.589 958.524 196.399 932.34 203.714 918.519L169.373 884.524C161.978 877.998 154.047 880.106 150.097 882.155L138.898 887.628C129.025 893.082 128.463 899.946 129.202 905.022Z" stroke="#F80082" stroke-width="8"/>
</svg>
