<svg width="2302" height="1196" viewBox="0 0 2302 1196" fill="none" xmlns="http://www.w3.org/2000/svg">
<path fill-rule="evenodd" clip-rule="evenodd" d="M2268.34 446.249L2272.88 343.172L2247.22 343.391L2229.41 359.572L1933.75 361.874C1911.9 361.375 1856.77 354.153 1811.02 329.266C1777.94 311.273 1730.37 280.983 1690.29 255.463C1661.08 236.86 1635.85 220.792 1623.11 213.87C1594.77 198.471 1516.22 161.486 1402.21 184.492C1212.76 222.72 1175.78 346.907 1170.36 400.924C1165.04 454.092 1184.58 573.449 1365.79 617.463C1501.91 650.523 1620.94 590.473 1662.61 559.739C1699.19 534.697 1780.1 481.157 1811.14 467.336C1842.18 453.515 1903.76 441.203 1930.67 436.775L2229.2 432.387L2243.08 447.381L2268.34 446.249ZM1739.11 397.566C1742.56 290.509 1622.7 206.417 1471.38 209.741C1320.06 213.066 1194.59 302.547 1191.14 409.604C1187.68 516.661 1307.55 600.753 1458.87 597.429C1610.18 594.104 1735.65 504.623 1739.11 397.566Z" fill="black"/>
<path d="M2272.88 343.172L2273.88 343.216L2273.92 342.163L2272.87 342.172L2272.88 343.172ZM2268.34 446.249L2268.39 447.248L2269.3 447.207L2269.34 446.293L2268.34 446.249ZM2247.22 343.391L2247.21 342.392L2246.83 342.395L2246.55 342.651L2247.22 343.391ZM2229.41 359.572L2229.42 360.572L2229.8 360.569L2230.09 360.312L2229.41 359.572ZM1933.75 361.874L1933.73 362.874L1933.74 362.875L1933.76 362.874L1933.75 361.874ZM1811.02 329.266L1811.49 328.388L1811.49 328.388L1811.02 329.266ZM1690.29 255.463L1690.83 254.62L1690.83 254.62L1690.29 255.463ZM1623.11 213.87L1622.63 214.748L1622.63 214.748L1623.11 213.87ZM1402.21 184.492L1402.41 185.472L1402.41 185.472L1402.21 184.492ZM1170.36 400.924L1171.36 401.024L1171.36 401.024L1170.36 400.924ZM1365.79 617.463L1365.56 618.434L1365.79 617.463ZM1662.61 559.739L1662.05 558.914L1662.03 558.924L1662.02 558.934L1662.61 559.739ZM1811.14 467.336L1810.74 466.422L1810.74 466.422L1811.14 467.336ZM1930.67 436.775L1930.65 435.775L1930.58 435.776L1930.51 435.788L1930.67 436.775ZM2229.2 432.387L2229.94 431.708L2229.63 431.381L2229.19 431.387L2229.2 432.387ZM2243.08 447.381L2242.34 448.06L2242.66 448.401L2243.12 448.38L2243.08 447.381ZM1471.38 209.741L1471.4 210.741L1471.4 210.741L1471.38 209.741ZM1739.11 397.566L1740.11 397.598L1740.11 397.598L1739.11 397.566ZM1191.14 409.604L1190.14 409.572L1190.14 409.572L1191.14 409.604ZM1458.87 597.429L1458.84 596.429L1458.84 596.429L1458.87 597.429ZM1932.21 399.325L1933.21 399.366L1933.21 399.366L1932.21 399.325ZM1751.64 328.401L1752.3 327.649L1750.73 328.82L1751.64 328.401ZM1746.42 471.554L1745.53 471.084L1746.99 472.374L1746.42 471.554ZM2271.88 343.128L2267.35 446.205L2269.34 446.293L2273.88 343.216L2271.88 343.128ZM2247.23 344.391L2272.88 344.172L2272.87 342.172L2247.21 342.392L2247.23 344.391ZM2230.09 360.312L2247.89 344.132L2246.55 342.651L2228.74 358.832L2230.09 360.312ZM1933.76 362.874L2229.42 360.572L2229.41 358.572L1933.74 360.874L1933.76 362.874ZM1810.54 330.145C1856.47 355.132 1911.78 362.372 1933.73 362.874L1933.77 360.875C1912.02 360.377 1857.06 353.174 1811.49 328.388L1810.54 330.145ZM1689.76 256.307C1729.82 281.819 1777.42 312.131 1810.54 330.145L1811.49 328.388C1778.45 310.415 1730.92 280.147 1690.83 254.62L1689.76 256.307ZM1622.63 214.748C1635.33 221.65 1660.52 237.691 1689.76 256.307L1690.83 254.62C1661.64 236.029 1636.36 219.935 1623.59 212.991L1622.63 214.748ZM1402.41 185.472C1516.1 162.531 1594.41 199.41 1622.63 214.748L1623.59 212.991C1595.14 197.531 1516.34 160.442 1402.01 183.512L1402.41 185.472ZM1171.36 401.024C1174.05 374.152 1184.6 329.798 1218.06 287.407C1251.5 245.034 1307.89 204.545 1402.41 185.472L1402.01 183.512C1307.08 202.668 1250.25 243.386 1216.49 286.168C1182.74 328.932 1172.09 373.68 1169.37 400.825L1171.36 401.024ZM1366.03 616.491C1275.63 594.534 1225.68 553.821 1198.97 512.087C1172.24 470.329 1168.71 427.436 1171.36 401.024L1169.37 400.825C1166.69 427.58 1170.26 470.949 1197.28 513.165C1224.32 555.404 1274.74 596.377 1365.56 618.434L1366.03 616.491ZM1662.02 558.934C1620.49 589.565 1501.76 649.457 1366.03 616.491L1365.56 618.434C1502.06 651.589 1621.4 591.38 1663.21 560.544L1662.02 558.934ZM1810.74 466.422C1795.14 473.368 1767.09 490.251 1738.42 508.486C1709.73 526.736 1680.34 546.388 1662.05 558.914L1663.18 560.564C1681.46 548.048 1710.82 528.409 1739.49 510.173C1768.18 491.922 1796.11 475.125 1811.55 468.25L1810.74 466.422ZM1930.51 435.788C1903.61 440.215 1841.91 452.542 1810.74 466.422L1811.55 468.25C1842.46 454.488 1903.91 442.192 1930.83 437.762L1930.51 435.788ZM2229.19 431.387L1930.65 435.775L1930.68 437.775L2229.22 433.387L2229.19 431.387ZM2243.81 446.702L2229.94 431.708L2228.47 433.067L2242.34 448.06L2243.81 446.702ZM2268.3 445.25L2243.03 446.382L2243.12 448.38L2268.39 447.248L2268.3 445.25ZM1471.4 210.741C1546.88 209.083 1614.46 229.229 1662.71 263.079C1710.96 296.927 1739.82 344.424 1738.11 397.534L1740.11 397.598C1741.85 343.651 1712.51 295.573 1663.86 261.442C1615.21 227.313 1547.2 207.075 1471.36 208.741L1471.4 210.741ZM1192.14 409.637C1193.85 356.509 1225.85 307.634 1276.39 271.587C1326.93 235.546 1395.92 212.399 1471.4 210.741L1471.36 208.741C1395.51 210.408 1326.12 233.664 1275.23 269.959C1224.34 306.249 1191.88 355.642 1190.14 409.572L1192.14 409.637ZM1458.84 596.429C1383.37 598.087 1315.79 577.941 1267.53 544.091C1219.29 510.243 1190.42 462.746 1192.14 409.637L1190.14 409.572C1188.4 463.519 1217.73 511.597 1266.39 545.728C1315.03 579.857 1383.05 600.095 1458.89 598.429L1458.84 596.429ZM1738.11 397.534C1736.39 450.661 1704.4 499.536 1653.85 535.583C1603.32 571.624 1534.32 594.771 1458.84 596.429L1458.89 598.429C1534.73 596.762 1604.12 573.506 1655.02 537.211C1705.9 500.921 1738.37 451.528 1740.11 397.598L1738.11 397.534ZM1932.75 361.833L1931.21 399.284L1933.21 399.366L1934.75 361.916L1932.75 361.833ZM1931.21 399.284L1929.67 436.734L1931.67 436.816L1933.21 399.366L1931.21 399.284ZM1932.41 398.345C1910.76 393.902 1875.74 385.026 1841.11 372.847C1806.45 360.655 1772.31 345.2 1752.3 327.649L1750.98 329.152C1771.3 346.976 1805.76 362.532 1840.45 374.733C1875.18 386.947 1910.28 395.845 1932.01 400.304L1932.41 398.345ZM1750.73 328.82C1761.64 352.437 1775.9 414.035 1745.53 471.084L1747.3 472.024C1778.06 414.246 1763.63 351.955 1752.55 327.981L1750.73 328.82ZM1746.99 472.374C1762.81 461.361 1791.09 444.521 1824.45 429.845C1857.83 415.166 1896.22 402.683 1932.27 400.323L1932.14 398.327C1895.76 400.708 1857.13 413.29 1823.65 428.014C1790.17 442.742 1761.77 459.646 1745.85 470.733L1746.99 472.374Z" fill="black"/>
<path d="M1297.68 569.369L1605.54 566.733" stroke="black" stroke-width="8"/>
<path d="M1221.16 506.598L1709.96 500.582" stroke="black" stroke-width="8"/>
<path d="M1193.41 442.494L1747.48 434.774" stroke="black" stroke-width="8"/>
<path d="M1196.23 378.357L1749.81 372.015" stroke="black" stroke-width="8"/>
<path d="M1229.23 313.276L1716.67 309.103" stroke="black" stroke-width="8"/>
<path d="M1306.48 247.586L1639.76 245.42" stroke="black" stroke-width="8"/>
<path d="M1252.38 544.799L1265 272.441" stroke="black" stroke-width="8"/>
<path d="M1312.59 575.423L1326.47 235.279" stroke="black" stroke-width="8"/>
<path d="M1371.64 593.235L1388.89 215.511" stroke="black" stroke-width="8"/>
<path d="M1431.1 601.885L1446.14 206.32" stroke="black" stroke-width="8"/>
<path d="M1491.94 598.617L1506.88 205.342" stroke="black" stroke-width="8"/>
<path d="M1552.06 587.34L1566.24 216.282" stroke="black" stroke-width="8"/>
<path d="M1611.38 560.272L1625.34 237.987" stroke="black" stroke-width="8"/>
<path d="M1671.88 525.866L1681.79 271.163" stroke="black" stroke-width="8"/>
<path d="M1752.11 329.406C1776.81 380.027 1764.08 446.08 1748.11 469.114C1809.88 425.08 1887.22 401.292 1923.67 398.69C1856.1 384.843 1778.21 358.033 1752.11 329.406Z" fill="white" stroke="black"/>
<path fill-rule="evenodd" clip-rule="evenodd" d="M26.7246 675.072L30.3504 782.62L57.0092 780.317L74.2177 762.051L381.469 735.741C404.227 734.493 462.14 737.543 511.726 759.72C547.576 775.753 599.488 803.402 643.225 826.696C675.107 843.677 702.645 858.343 716.451 864.511C747.162 878.231 831.836 910.334 948.523 877.19C1142.42 822.115 1170.83 689.991 1172.09 633.386C1173.33 577.67 1143.36 455.141 951.365 424.033C807.154 400.667 688.241 472.737 647.396 508.065C611.389 537.063 531.583 599.28 500.425 616.162C469.267 633.044 406.234 650.827 378.612 657.609L68.5454 686.32L52.9069 671.851L26.7246 675.072ZM580.973 682.884C586.04 794.484 717.481 872.228 874.556 856.531C1031.63 840.834 1154.86 737.64 1149.79 626.041C1144.72 514.441 1013.28 436.697 856.208 452.394C699.133 468.091 575.906 571.285 580.973 682.884Z" fill="black"/>
<path d="M30.3504 782.62L29.351 782.654L29.3865 783.707L30.4365 783.617L30.3504 782.62ZM26.7246 675.072L26.6025 674.08L25.6943 674.192L25.7251 675.106L26.7246 675.072ZM57.0092 780.317L57.0952 781.313L57.4754 781.28L57.737 781.002L57.0092 780.317ZM74.2177 762.051L74.1324 761.055L73.7518 761.087L73.4898 761.365L74.2177 762.051ZM381.469 735.741L381.414 734.742L381.399 734.743L381.383 734.744L381.469 735.741ZM511.726 759.72L511.318 760.633L511.318 760.633L511.726 759.72ZM643.225 826.696L643.695 825.814L643.695 825.814L643.225 826.696ZM716.451 864.511L716.859 863.598L716.859 863.598L716.451 864.511ZM948.523 877.19L948.797 878.152L948.797 878.152L948.523 877.19ZM1172.09 633.386L1173.09 633.408L1172.09 633.386ZM951.365 424.033L951.205 425.02L951.365 424.033ZM647.396 508.065L648.024 508.844L648.037 508.833L648.051 508.821L647.396 508.065ZM500.425 616.162L500.902 617.041L500.902 617.041L500.425 616.162ZM378.612 657.609L378.704 658.604L378.778 658.597L378.85 658.58L378.612 657.609ZM68.5454 686.32L67.8663 687.054L68.1936 687.356L68.6376 687.315L68.5454 686.32ZM52.9069 671.851L53.586 671.117L53.2454 670.802L52.7848 670.859L52.9069 671.851ZM874.556 856.531L874.457 855.536L874.457 855.536L874.556 856.531ZM580.973 682.884L579.974 682.93L579.974 682.93L580.973 682.884ZM1149.79 626.041L1148.79 626.086L1148.79 626.086L1149.79 626.041ZM856.208 452.394L856.108 451.399L856.208 452.394ZM380.04 696.675L379.041 696.711L379.041 696.711L380.04 696.675ZM573.534 755.817L572.935 756.618L574.407 755.328L573.534 755.817ZM567.388 606.541L568.304 606.941L566.754 605.767L567.388 606.541ZM31.3498 782.587L27.724 675.039L25.7251 675.106L29.351 782.654L31.3498 782.587ZM56.9231 779.32L30.2643 781.624L30.4365 783.617L57.0952 781.313L56.9231 779.32ZM73.4898 761.365L56.2813 779.631L57.737 781.002L74.9455 762.737L73.4898 761.365ZM381.383 734.744L74.1324 761.055L74.303 763.048L381.554 736.737L381.383 734.744ZM512.134 758.807C462.357 736.544 404.271 733.489 381.414 734.742L381.523 736.739C404.182 735.497 461.923 738.541 511.318 760.633L512.134 758.807ZM643.695 825.814C599.971 802.526 548.023 774.858 512.134 758.807L511.318 760.633C547.129 776.649 599.006 804.278 642.755 827.579L643.695 825.814ZM716.859 863.598C703.094 857.449 675.598 842.805 643.695 825.814L642.755 827.579C674.616 844.548 702.196 859.238 716.043 865.424L716.859 863.598ZM948.25 876.228C831.873 909.284 747.453 877.266 716.859 863.598L716.043 865.424C746.871 879.197 831.798 911.384 948.797 878.152L948.25 876.228ZM1171.09 633.363C1170.46 661.529 1163.08 708.512 1131.72 755.305C1100.36 802.08 1044.99 848.749 948.25 876.228L948.797 878.152C1045.95 850.556 1101.73 803.626 1133.38 756.419C1165.01 709.23 1172.46 661.848 1173.09 633.408L1171.09 633.363ZM951.205 425.02C1046.99 440.54 1102.24 478.838 1133.39 520.084C1164.57 561.352 1171.71 605.678 1171.09 633.363L1173.09 633.408C1173.72 605.377 1166.49 560.581 1134.99 518.879C1103.47 477.155 1047.73 438.634 951.525 423.046L951.205 425.02ZM648.051 508.821C688.765 473.606 807.389 401.718 951.205 425.02L951.525 423.046C806.919 399.616 687.718 471.867 646.742 507.309L648.051 508.821ZM500.902 617.041C516.557 608.559 544.358 588.737 572.693 567.457C601.051 546.159 630.013 523.349 648.024 508.844L646.769 507.286C628.772 521.78 599.828 544.576 571.492 565.858C543.132 587.156 515.451 606.883 499.949 615.283L500.902 617.041ZM378.85 658.58C406.461 651.801 469.615 633.993 500.902 617.041L499.949 615.283C468.919 632.096 406.006 649.854 378.373 656.637L378.85 658.58ZM68.6376 687.315L378.704 658.604L378.52 656.613L68.4532 685.324L68.6376 687.315ZM52.2278 672.585L67.8663 687.054L69.2245 685.585L53.586 671.117L52.2278 672.585ZM26.8467 676.065L53.029 672.844L52.7848 670.859L26.6025 674.08L26.8467 676.065ZM874.457 855.536C796.1 863.366 724.19 847.883 671.271 816.583C618.355 785.285 584.486 738.22 581.972 682.839L579.974 682.93C582.526 739.148 616.912 786.755 670.252 818.305C723.59 849.852 795.938 865.393 874.656 857.526L874.457 855.536ZM1148.79 626.086C1151.31 681.485 1121.98 734.907 1072.33 776.483C1022.69 818.053 952.813 847.706 874.457 855.536L874.656 857.526C953.375 849.66 1023.64 819.867 1073.62 778.016C1123.59 736.171 1153.34 682.196 1150.79 625.995L1148.79 626.086ZM856.307 453.389C934.664 445.558 1006.57 461.042 1059.49 492.342C1112.41 523.64 1146.28 570.705 1148.79 626.086L1150.79 625.995C1148.24 569.777 1113.85 522.17 1060.51 490.62C1007.17 459.073 934.826 443.532 856.108 451.399L856.307 453.389ZM581.972 682.839C579.457 627.44 608.782 574.018 658.429 532.442C708.07 490.872 777.951 461.219 856.307 453.389L856.108 451.399C777.389 459.265 707.12 489.058 657.145 530.909C607.177 572.754 577.422 626.729 579.974 682.93L581.972 682.839ZM382.468 735.704L381.04 696.638L379.041 696.711L380.469 735.777L382.468 735.704ZM381.04 696.638L379.611 657.572L377.613 657.645L379.041 696.711L381.04 696.638ZM379.916 697.667C402.793 700.536 439.921 706.933 476.917 716.797C513.948 726.67 550.7 739.981 572.935 756.618L574.133 755.016C551.568 738.132 514.49 724.745 477.432 714.864C440.338 704.974 403.119 698.561 380.165 695.683L379.916 697.667ZM574.407 755.328C561.147 731.646 541.333 668.734 568.304 606.941L566.471 606.141C539.17 668.691 559.21 732.28 572.662 756.305L574.407 755.328ZM566.754 605.767C551.193 618.501 523.146 638.3 489.637 656.261C456.121 674.225 417.207 690.313 379.898 695.685L380.183 697.665C417.818 692.246 456.966 676.041 490.582 658.023C524.205 640.002 552.36 620.13 568.021 607.315L566.754 605.767Z" fill="black"/>
<path d="M1026.08 468.534L706.172 496.178" stroke="black" stroke-width="7"/>
<path d="M1110.73 527.614L602.94 573.41" stroke="black" stroke-width="7"/>
<path d="M1144.76 592.026L569.254 644.872" stroke="black" stroke-width="7"/>
<path d="M1147.02 658.945L571.908 710.319" stroke="black" stroke-width="7"/>
<path d="M1117.98 729.287L611.459 773.056" stroke="black" stroke-width="7"/>
<path d="M1042.95 803.842L696.586 833.053" stroke="black" stroke-width="7"/>
<path d="M1075.16 490.419L1084.08 774.642" stroke="black" stroke-width="7"/>
<path d="M1010.09 463.444L1023.16 818.256" stroke="black" stroke-width="7"/>
<path d="M947.237 449.699L959.857 843.86" stroke="black" stroke-width="7"/>
<path d="M884.713 445.515L901.071 858.048" stroke="black" stroke-width="7"/>
<path d="M821.715 453.835L837.993 863.978" stroke="black" stroke-width="7"/>
<path d="M760.109 470.424L775.383 857.404" stroke="black" stroke-width="7"/>
<path d="M700.618 503.369L712.177 839.616" stroke="black" stroke-width="7"/>
<path d="M640.497 544.038L650.79 809.685" stroke="black" stroke-width="7"/>
<path d="M572.967 754.809C543.186 704.171 551.085 634.457 565.83 609.214C505.157 659.998 426.661 690.99 388.975 696.644C460.35 705.576 543.515 727.153 572.967 754.809Z" fill="white" stroke="black"/>
<circle cx="1369.5" cy="874.049" r="122.5" stroke="black" stroke-width="4"/>
<path d="M1288.5 782.049C1282.02 808.418 1277.26 864.452 1309.43 883.127C1349.63 906.471 1409.81 896.359 1427.44 883.127C1455.09 862.377 1464.27 827.736 1450 781.049" stroke="black" stroke-width="4"/>
<path d="M1605 1015.68C1577.07 1026.68 1554.98 1055.68 1547.25 1069.08M1625.2 1189.67C1646.07 1187.21 1679.26 1173.27 1681.77 1131.41C1685.21 1074.12 1706.88 1016.39 1748.12 1033.58M1654 977.547C1658.32 977.547 1662.57 977.801 1666.76 978.293C1657.32 985.618 1632.48 1002.7 1604.27 1013.82C1588.75 1019.93 1575.1 1031.4 1564.65 1042.69C1557.67 1050.23 1552.06 1057.76 1548.21 1063.69C1558.32 1014.52 1601.84 977.547 1654 977.547ZM1546.76 1072.64L1547.41 1072.97C1550.18 1067.44 1557.34 1056.47 1567.58 1045.41C1577.83 1034.34 1591 1023.34 1605.73 1017.54C1636.22 1005.53 1662.75 986.71 1670.88 980.13L1669.71 978.682C1702.82 983.508 1731.06 1003.36 1747.29 1031.09C1737.14 1027.28 1727.99 1027.8 1719.95 1031.76C1711.58 1035.89 1704.64 1043.66 1699.03 1053.58C1687.81 1073.4 1681.5 1102.5 1679.77 1131.29C1678.44 1153.55 1668.21 1167.56 1655.97 1176.11C1643.79 1184.62 1629.54 1187.77 1619.92 1188.06C1576.97 1173.79 1546 1133.28 1546 1085.55C1546 1081.18 1546.26 1076.87 1546.76 1072.64ZM1654 1193.55C1645.83 1193.55 1637.87 1192.64 1630.22 1190.92C1639 1189.28 1649.15 1185.75 1658.26 1179.39C1671.44 1170.19 1682.35 1155.1 1683.77 1131.53C1685.48 1103.03 1691.72 1074.62 1702.51 1055.55C1707.9 1046.02 1714.33 1039 1721.72 1035.35C1729.04 1031.74 1737.52 1031.32 1747.36 1035.42L1748.37 1032.99C1757.05 1048.54 1762 1066.47 1762 1085.55C1762 1145.19 1713.65 1193.55 1654 1193.55Z" stroke="black" stroke-width="4"/>
</svg>
