<svg width="1375" height="432" viewBox="0 0 1375 432" fill="none" xmlns="http://www.w3.org/2000/svg">
<path d="M415.722 419.058L415.722 44.9415L19.6992 199.582L19.6992 264.418L415.722 419.058Z" fill="#F80082"/>
<rect y="193.304" width="19.7" height="76.6893" rx="7" fill="black"/>
<rect x="0.5" y="193.804" width="18.7" height="75.6893" rx="6.5" stroke="black" stroke-opacity="0.85098"/>
<rect x="412.996" y="35" width="28.1429" height="394" rx="11" fill="black"/>
<rect x="413.496" y="35.5" width="27.1429" height="393" rx="10.5" stroke="black" stroke-opacity="0.85098"/>
<path d="M465 386L542 422.5" stroke="black" stroke-opacity="0.85098" stroke-width="19"/>
<path d="M465 85.5L542 49" stroke="black" stroke-opacity="0.85098" stroke-width="19"/>
<path d="M464.871 247.127L550.064 248.982" stroke="black" stroke-opacity="0.85098" stroke-width="19"/>
<path d="M536 163.5L608 232.5L525 338.5H629.5L690 427.5L947.5 364.5V427.5L1100.5 364.5L1274.5 427.5V326L1371.5 315L1351.5 252.5L1337.5 201.5L1362 92.5H1265.5L1179.5 32.5L1010.5 102L881.5 54L803 102L608 3.5V120L536 163.5Z" stroke="black" stroke-opacity="0.85098" stroke-width="4"/>
</svg>
