<svg width="1321" height="1018" viewBox="0 0 1321 1018" fill="none" xmlns="http://www.w3.org/2000/svg">
<path d="M482.332 242.084C482.332 237.628 479.32 216.766 476.919 192.985M482.332 242.084L545.572 224.482M482.332 242.084C482.332 245.449 487.502 269.671 493.441 296.312M506.401 353.251C502.932 338.298 497.964 316.603 493.441 296.312M506.401 353.251L565.646 337.503M506.401 353.251L523.233 412.541M724.878 720.104C716.054 711.273 704.949 692.872 690.626 678.514M724.878 720.104L795.235 698.706M724.878 720.104C734.136 729.368 743.616 745.55 753.986 765.497M583.239 883.15L644.822 868.327M583.239 883.15C583.408 894.187 585.91 913.645 593.054 934.101M583.239 883.15L586.19 832.198M752.651 990.787C750.233 993.018 747.752 995.088 745.245 997.003M752.651 990.787C759.639 984.339 766.103 976.548 771.166 967.264M752.651 990.787C744.953 992.485 734.872 991.938 725.804 990.671M745.245 997.003C731.346 1007.62 716.633 1013.48 707.289 1015.62C690.934 1017.48 650.818 1013.4 621.194 982.274C620.568 981.615 619.95 980.949 619.343 980.276M745.245 997.003L805.419 982.274C811.918 980.717 819.969 976.595 827.637 969.072M684.145 583.924C681.531 580.61 678.434 576.556 674.976 571.881M684.145 583.924L674.976 571.881M684.145 583.924L619.815 603.378M684.145 583.924L693.099 593.188M555.915 19.7487C557.617 11.9673 559.076 6.78126 560.095 4L482.332 41.0558C481.12 51.03 479.378 66.7344 477.801 83.67M555.915 19.7487L538.803 23.4543M555.915 19.7487C555 23.9302 554.014 28.8611 552.989 34.5711M552.989 34.5711L519.362 44.7614M552.989 34.5711C552.28 38.5186 551.551 42.8386 550.814 47.5406M552.989 34.5711L550.814 47.5406M550.814 47.5406L536.025 51.2462M550.814 47.5406C550.014 52.6446 549.202 58.1988 548.393 64.2157M548.393 64.2157L477.801 83.67M548.393 64.2157C547.879 68.0419 547.365 72.0552 546.855 76.2589M548.393 64.2157L546.855 76.2589M477.801 83.67C476.054 102.414 474.509 122.667 474.103 138.327M546.855 76.2589L530.471 80.8909M546.855 76.2589C546.285 80.9601 545.72 85.8994 545.165 91.0812M545.165 91.0812L514.733 99.4188M545.165 91.0812C544.719 95.2469 544.279 99.5693 543.848 104.051M545.165 91.0812L543.848 104.051M543.848 104.051L528.619 107.756M543.848 104.051C543.473 107.945 543.105 111.958 542.745 116.094M542.745 116.094C542.665 117.014 542.585 117.941 542.506 118.873C542.169 122.835 541.9 126.854 541.694 130.916M542.745 116.094C527.922 119.491 493.442 128.693 474.103 138.327M542.745 116.094L541.694 130.916M474.103 138.327C474.036 140.934 474 143.414 474 145.739C474 160.147 475.325 177.209 476.919 192.985M541.694 130.916L526.768 134.622M541.694 130.916C541.417 136.405 541.254 141.974 541.194 147.591M541.194 147.591L520.288 154.076M541.194 147.591C541.148 151.891 541.162 156.219 541.231 160.561M541.194 147.591L541.231 160.561M541.231 160.561L528.619 164.266M541.231 160.561C541.309 165.49 541.457 170.438 541.667 175.383M541.667 175.383L476.919 192.985M541.667 175.383C541.837 179.403 542.048 183.421 542.296 187.426M541.667 175.383L542.296 187.426M542.296 187.426L526.768 191.132M542.296 187.426C542.526 191.146 542.787 194.855 543.077 198.543M543.077 198.543L520.288 205.028M543.077 198.543C543.393 202.585 543.744 206.604 544.122 210.586M543.077 198.543L544.122 210.586M544.122 210.586L528.619 215.218M544.122 210.586C544.568 215.274 545.054 219.913 545.572 224.482M545.572 224.482C546.106 229.194 546.674 233.833 547.267 238.378M547.267 238.378L535.1 242.084M547.267 238.378C547.929 243.446 548.622 248.396 549.336 253.2M547.267 238.378L549.336 253.2M549.336 253.2L524.916 260.612M549.336 253.2C549.95 257.329 550.578 261.35 551.214 265.244M551.214 265.244L537.877 268.949M551.214 265.244C552.004 270.083 552.806 274.727 553.605 279.14M551.214 265.244L553.605 279.14M553.605 279.14L493.441 296.312M553.605 279.14C554.563 284.434 555.518 289.395 556.444 293.962M556.444 293.962L542.296 297.667M556.444 293.962C557.492 299.128 558.503 303.79 559.442 307.858M556.444 293.962L559.442 307.858M559.442 307.858C559.664 308.818 559.882 309.744 560.095 310.637C560.61 313.687 561.308 317.427 562.19 321.754M538.803 313.416L560.095 307.858L562.19 321.754M562.19 321.754L549.336 325.459M562.19 321.754C563.132 326.376 564.283 331.668 565.646 337.503M565.646 337.503C566.597 341.575 567.651 345.913 568.808 350.472M568.808 350.472L558.243 353.251M568.808 350.472C570.006 355.191 571.314 360.148 572.733 365.294M568.808 350.472L572.733 365.294M572.733 365.294L551.214 371.779M572.733 365.294C573.892 369.499 575.126 373.831 576.433 378.264M576.433 378.264L563.798 381.97M576.433 378.264C578.033 383.687 579.744 389.261 581.567 394.939M576.433 378.264L581.567 394.939M581.567 394.939L523.233 412.541M581.567 394.939C583.035 399.512 584.575 404.152 586.188 408.835M523.233 412.541L529.545 434.774C531.278 441.134 534.918 452.418 540.35 466.272M586.188 408.835L572.733 412.541M586.188 408.835C587.773 413.434 589.427 418.073 591.151 422.731M586.188 408.835L591.151 422.731M591.151 422.731L568.808 429.216M591.151 422.731C592.635 426.737 594.17 430.757 595.758 434.774M595.758 434.774C597.102 438.175 598.483 441.575 599.902 444.964C600.289 445.889 600.682 446.816 601.08 447.744M595.758 434.774L582.313 438.48M595.758 434.774L601.08 447.744M601.08 447.744L540.35 466.272M601.08 447.744C603.307 452.934 605.704 458.169 608.234 463.413M540.35 466.272C546.221 481.246 554.187 499.221 564.103 517.223M608.234 463.413L596.199 467.198M608.234 463.413C610.183 467.454 612.211 471.5 614.3 475.536M608.234 463.413L614.3 475.536M614.3 475.536L588.793 482.947M614.3 475.536C616.388 479.566 618.537 483.586 620.731 487.579M620.731 487.579L609.16 491.284M620.731 487.579C622.956 491.627 625.227 495.647 627.526 499.622M620.731 487.579L627.526 499.622M627.526 499.622L564.103 517.223M627.526 499.622C629.88 503.69 632.263 507.71 634.658 511.665M564.103 517.223C564.613 518.15 565.129 519.076 565.649 520.003C573.505 533.978 582.189 548.029 590.456 560.764M634.658 511.665L620.269 516.297M634.658 511.665C636.554 514.797 638.458 517.888 640.359 520.929M634.658 511.665L640.359 520.929M640.359 520.929L613.788 529.266M640.359 520.929C642.326 524.074 644.29 527.166 646.241 530.193M646.241 530.193L633.229 534.825M646.241 530.193C648.912 534.336 651.558 538.359 654.154 542.236M646.241 530.193L654.154 542.236M654.154 542.236L590.456 560.764M654.154 542.236C656.737 546.095 659.27 549.809 661.726 553.353M590.456 560.764C602.338 579.067 613.357 594.651 619.815 603.378M661.726 553.353L649.893 557.058M661.726 553.353C664.028 556.673 666.262 559.844 668.408 562.844M661.726 553.353L668.408 562.844M668.408 562.844L642.487 570.954M668.408 562.844C670.708 566.061 672.907 569.082 674.976 571.881M674.976 571.881L657.299 576.513M619.815 603.378C620.301 604.035 620.761 604.653 621.194 605.231L650.818 638.828M693.099 593.188L677.665 597.82M693.099 593.188L701.158 601.525M701.158 601.525L674.976 608.937M701.158 601.525L708.321 608.937M708.321 608.937L691.551 613.568M708.321 608.937L719.066 620.053M719.066 620.053L650.818 638.828M719.066 620.053L729.507 630.856M650.818 638.828L662.853 652.477C669.859 658.579 680.235 668.098 690.626 678.514M729.507 630.856L717.472 633.949M729.507 630.856L737.213 638.828M737.213 638.828L711.918 646.919M737.213 638.828L745.928 647.845M745.928 647.845L734.136 651.551M745.928 647.845L756.673 658.962M756.673 658.962L690.626 678.514M756.673 658.962L764.686 667.252M764.686 667.252L752.651 671.005M764.686 667.252L774.581 677.49M774.581 677.49L747.096 684.901M774.581 677.49L783.982 687.217M783.982 687.217L793.384 696.944C793.963 697.447 794.581 698.034 795.235 698.706M783.982 687.217L768.389 691.386M783.982 687.217L795.235 698.706M795.235 698.706C797.827 701.368 800.982 705.37 804.498 710.84M804.498 710.84L789.681 715.472M804.498 710.84C806.4 713.8 808.409 717.19 810.492 721.03M804.498 710.84L810.492 721.03M810.492 721.03L782.275 729.368M810.492 721.03C812.313 724.387 814.191 728.088 816.104 732.147M816.104 732.147L799.864 736.779M816.104 732.147C818.101 736.384 820.137 741.011 822.188 746.043M816.104 732.147L822.188 746.043M822.188 746.043L753.986 765.497M822.188 746.043C823.729 749.826 825.279 753.838 826.827 758.086M753.986 765.497C759.877 776.83 765.545 791.344 770.24 811.817C770.454 812.752 770.668 813.678 770.881 814.596M826.827 758.086L813.75 761.792M826.827 758.086C828.22 761.908 829.611 765.921 830.993 770.129M826.827 758.086L830.993 770.129M830.993 770.129L801.716 777.541M830.993 770.129C832.164 773.694 833.328 777.398 834.482 781.246M834.482 781.246L822.188 784.952M834.482 781.246C835.923 786.055 837.347 791.089 838.746 796.351M834.482 781.246L838.746 796.351M838.746 796.351L770.881 814.596M838.746 796.351C839.985 801.016 841.204 805.861 842.397 810.891M770.881 814.596C775.648 835.183 779.983 851.825 782.755 867.401M842.397 810.891L834.117 812.744M842.397 810.891C843.358 814.946 844.302 819.12 845.226 823.417M842.397 810.891L845.226 823.417M845.226 823.417L818.379 831.272M845.226 823.417C846.097 827.47 846.95 831.632 847.783 835.903M847.783 835.903C848.489 839.529 849.18 843.235 849.855 847.02C849.965 847.64 850.073 848.258 850.179 848.873M847.783 835.903L835.043 839.609M847.783 835.903L850.179 848.873M850.179 848.873L782.755 867.401M850.179 848.873C850.889 853.002 851.493 857.016 851.996 860.916M782.755 867.401C785.679 883.829 786.864 899.07 784.983 916.5M851.996 860.916L836.894 865.548M851.996 860.916C852.573 865.387 853.018 869.708 853.34 873.886M851.996 860.916L853.34 873.886M853.34 873.886L823.008 883.15M853.34 873.886C853.636 877.711 853.828 881.416 853.925 885.002M853.925 885.002L836.894 889.634M853.925 885.002C854.047 889.51 854.018 893.831 853.852 897.972M853.925 885.002L853.852 897.972M853.852 897.972L784.983 916.5M853.852 897.972C853.614 903.894 853.096 909.446 852.338 914.647M784.983 916.5C783.916 926.396 781.859 936.998 778.572 948.924C776.733 955.595 774.201 961.697 771.166 967.264M852.338 914.647L835.043 919.279M852.338 914.647C851.82 918.207 851.19 921.602 850.461 924.838M852.338 914.647L850.461 924.838M850.461 924.838L819.305 934.101M850.461 924.838C849.729 928.084 848.898 931.17 847.981 934.101M847.981 934.101L827.637 939.66M847.981 934.101C846.621 938.452 845.071 942.463 843.374 946.153M847.981 934.101L843.374 946.153M843.374 946.153L771.166 967.264M843.374 946.153C840.955 951.417 838.239 956.028 835.352 960.041M835.352 960.041L812.825 964.673M835.352 960.041C832.879 963.478 830.281 966.477 827.637 969.072M835.352 960.041L827.637 969.072M827.637 969.072L796.161 975.789M648.824 828.492L637.858 831.272M648.824 828.492L647.258 838.683M648.824 828.492L650.249 819.228M647.258 838.683L647.115 839.609C646.67 843.023 646.183 847.504 645.76 852.579M647.258 838.683L619.343 847.02M647.258 838.683L645.76 852.579M645.76 852.579L633.229 856.284M645.76 852.579C645.356 857.424 645.012 862.811 644.822 868.327M644.822 868.327C644.673 872.637 644.617 877.026 644.701 881.297M644.701 881.297L636.932 883.15M644.701 881.297C644.789 885.832 645.034 890.233 645.488 894.266M644.701 881.297L645.488 894.266M645.488 894.266C645.871 897.662 646.403 900.797 647.115 903.53C647.353 904.443 647.576 905.37 647.789 906.31M645.488 894.266L622.12 900.751M647.789 906.31L637.858 909.089M647.789 906.31C648.649 910.11 649.348 914.129 650.24 918.353M647.789 906.31L650.24 918.353M650.24 918.353L593.054 934.101M650.24 918.353C651.053 922.201 652.028 926.219 653.433 930.396M593.054 934.101C598.627 950.061 607.024 966.627 619.343 980.276M653.433 930.396L647.115 932.249M653.433 930.396C654.739 934.276 656.416 938.293 658.68 942.439M653.433 930.396L658.68 942.439M658.68 942.439L635.081 949.85M658.68 942.439C660.554 945.869 662.83 949.386 665.63 952.986M665.63 952.986L653.433 957.261M665.63 952.986C668.231 956.33 671.284 959.745 674.888 963.227M665.63 952.986L674.888 963.227M674.888 963.227L619.343 980.276M674.888 963.227C677.135 965.398 679.595 967.596 682.294 969.818M682.294 969.818L669.333 973.937M682.294 969.818C685.419 972.393 688.864 975.001 692.664 977.642M682.294 969.818L692.664 977.642M692.664 977.642L669.333 985.053M692.664 977.642C696.539 980.335 700.784 983.061 705.438 985.82M705.438 985.82C706.048 986.181 706.665 986.543 707.289 986.906C711.482 988.078 718.296 989.621 725.804 990.671M705.438 985.82L696.18 988.759M725.804 990.671L706.363 997.003M586.19 832.198L586.942 819.228L652.67 803.48L650.249 819.228M586.19 832.198C592.921 830.654 607.678 828.678 612.863 833.124C618.047 837.571 626.132 833.124 629.526 830.345C632.849 825.713 641.646 817.005 650.249 819.228" stroke="black" stroke-width="4"/>
<path d="M495.779 134.005L516.212 127.678L517.073 130.458L499.878 135.782L504.363 139.921L501.726 140.737L496.418 136.068L495.779 134.005ZM507.511 108.504L510.033 107.723L514.461 122.024L512.742 122.556L503.82 117.781C500.93 116.258 499.05 115.458 496.843 116.141C494.579 116.842 493.524 118.708 494.26 121.087C494.997 123.465 497.093 124.355 499.415 123.636L500.733 123.228L501.576 125.95L500.229 126.367C496.475 127.53 492.989 125.908 491.738 121.867C490.487 117.827 492.4 114.471 495.982 113.362C499.192 112.368 501.83 113.686 505.038 115.425L510.582 118.42L507.511 108.504Z" fill="black"/>
<path d="M495.779 192.005L516.212 185.678L517.073 188.458L499.878 193.782L504.363 197.921L501.726 198.737L496.418 194.068L495.779 192.005ZM491.828 179.243L512.26 172.916L513.121 175.696L495.927 181.02L500.411 185.159L497.775 185.975L492.466 181.306L491.828 179.243Z" fill="black"/>
<path d="M499.779 242.005L520.212 235.678L521.073 238.458L503.878 243.782L508.363 247.921L505.726 248.737L500.418 244.068L499.779 242.005ZM495.365 228.664C494.035 224.365 495.916 220.705 500.587 219.258L506.777 217.342C511.678 215.825 515.096 217.938 516.4 222.151C517.705 226.364 516.079 230.039 511.178 231.556L504.988 233.473C500.317 234.919 496.696 232.962 495.365 228.664ZM513.878 222.932C512.982 220.037 510.438 219.223 507.601 220.102L501.468 222.001C498.631 222.879 496.991 224.988 497.887 227.883C498.784 230.777 501.328 231.591 504.165 230.713L510.298 228.814C513.135 227.935 514.775 225.826 513.878 222.932Z" fill="black"/>
<path d="M523.165 287.013L530.856 289.845L531.877 293.141L522.503 289.542C523.088 290.115 523.593 290.932 523.939 292.05C525.11 295.833 523.345 299.363 519.132 300.667C515.235 301.874 511.345 300.063 509.926 295.478C508.488 290.835 510.595 287.294 514.607 286.052C517.702 285.093 520.256 285.936 523.165 287.013ZM518.272 297.887C520.794 297.106 522.254 294.927 521.332 291.946C520.48 289.195 517.99 288.05 515.468 288.831C513.089 289.568 511.56 291.831 512.448 294.697C513.37 297.677 515.893 298.624 518.272 297.887Z" fill="black"/>
<path d="M536.34 341.73C539.779 340.665 543.012 342.585 544.352 346.913L544.591 347.686C545.904 351.928 544.305 355.281 540.866 356.346C538 357.233 535.699 355.684 534.752 354.25C534.746 355.854 533.921 358.056 531.17 358.908C527.96 359.902 524.834 358.326 523.53 354.113L523.299 353.368C521.986 349.127 523.683 346.089 526.893 345.095C529.644 344.243 531.57 345.594 532.481 346.914C532.451 345.195 533.475 342.617 536.34 341.73ZM525.764 352.605L525.994 353.35C526.704 355.643 528.455 356.734 530.433 356.121C532.41 355.509 533.238 353.62 532.528 351.327L532.298 350.582C531.588 348.289 529.837 347.198 527.859 347.811C525.882 348.423 525.054 350.312 525.764 352.605ZM534.744 349.762L535.011 350.621C535.756 353.028 537.646 354.265 539.824 353.59C542.002 352.916 542.863 350.828 542.118 348.421L541.852 347.561C541.097 345.125 539.216 343.917 537.038 344.592C534.86 345.266 533.99 347.326 534.744 349.762Z" fill="black"/>
<path d="M542.827 404.452L564.206 408.888L565.146 411.926L544.233 407.472L547.676 418.591L545.154 419.372L540.735 405.1L542.827 404.452Z" fill="black"/>
<path d="M761.19 699.832L762.53 704.159L768.806 702.216L769.64 704.91L763.364 706.853L766.559 717.17L765.04 717.64L749.4 711.554L748.459 708.516L760.123 704.904L758.783 700.577L761.19 699.832ZM763.016 714.247L760.957 707.598L752.503 710.216L763.016 714.247Z" fill="black"/>
<path d="M622.138 942.14L610.79 945.654L606.921 933.159L609.443 932.378L612.495 942.237L618.399 940.409C617.348 939.855 616.243 938.721 615.631 936.744C614.548 933.247 616.052 929.484 620.322 928.162L620.638 928.064C624.592 926.84 628.26 928.845 629.582 933.115C631.028 937.786 628.854 940.909 625.83 942.096L624.987 939.374C626.292 938.719 628.045 937.077 627.06 933.896C626.252 931.288 623.925 930.061 621.489 930.815L621.203 930.904C618.595 931.712 617.531 933.957 618.348 936.593C619.138 939.144 620.872 939.674 621.428 939.848L622.138 942.14ZM616.136 912.916L623.828 915.748L624.848 919.044L615.474 915.445C616.06 916.018 616.564 916.835 616.91 917.953C618.081 921.736 616.317 925.266 612.104 926.57C608.206 927.777 604.317 925.966 602.897 921.381C601.46 916.738 603.566 913.197 607.579 911.954C610.674 910.996 613.227 911.839 616.136 912.916ZM611.243 923.79C613.765 923.009 615.226 920.83 614.303 917.849C613.451 915.098 610.961 913.953 608.439 914.734C606.061 915.471 604.532 917.734 605.419 920.6C606.342 923.58 608.865 924.527 611.243 923.79Z" fill="black"/>
<path d="M646.378 972.56C649.74 971.04 653.159 972.555 655.137 976.929C657.215 981.521 655.339 984.872 652.787 986.29L651.587 983.638C652.967 982.685 653.931 980.668 652.732 978.017C651.557 975.42 649.585 974.337 647.426 975.313C645.239 976.303 644.719 978.283 645.857 980.798L647.403 984.214L644.997 985.302L643.415 981.804C642.475 979.726 640.825 978.991 638.857 979.881C636.916 980.759 636.488 982.797 637.477 984.983C638.516 987.279 640.295 987.792 642.071 987.35L643.258 989.974C640.709 990.963 637.028 990.323 635.112 986.086C633.269 982.014 634.472 978.704 637.561 977.307C639.966 976.218 641.943 977.168 642.994 978.108C642.776 976.462 643.29 973.958 646.378 972.56ZM638.253 954.452C641.533 952.968 644.979 954.472 646.846 958.599L647.179 959.337C649.009 963.382 647.839 966.908 644.559 968.392C641.825 969.628 639.35 968.378 638.232 967.072C638.426 968.664 637.88 970.952 635.256 972.139C632.195 973.524 628.897 972.349 627.08 968.331L626.758 967.62C624.928 963.574 626.235 960.349 629.296 958.964C631.92 957.777 633.999 958.879 635.067 960.075C634.824 958.374 635.519 955.688 638.253 954.452ZM629.109 966.556L629.43 967.267C630.419 969.454 632.292 970.319 634.178 969.466C636.064 968.612 636.652 966.635 635.662 964.448L635.341 963.737C634.352 961.551 632.479 960.686 630.593 961.539C628.707 962.392 628.12 964.37 629.109 966.556ZM637.667 962.619L638.038 963.439C639.076 965.735 641.106 966.727 643.183 965.787C645.26 964.848 645.855 962.669 644.816 960.373L644.446 959.553C643.395 957.23 641.378 956.265 639.3 957.205C637.223 958.144 636.616 960.296 637.667 962.619Z" fill="black"/>
<path d="M788.207 748.813C791.732 747.722 794.935 749.651 796.355 754.236C797.846 759.05 795.568 762.142 792.86 763.232L791.999 760.452C793.486 759.678 794.694 757.796 793.833 755.017C792.99 752.294 791.168 750.974 788.904 751.675C786.612 752.385 785.85 754.285 786.666 756.922L787.775 760.504L785.253 761.285L784.117 757.617C783.443 755.439 781.897 754.504 779.834 755.143C777.799 755.773 777.121 757.741 777.831 760.034C778.577 762.441 780.278 763.171 782.095 762.953L782.947 765.705C780.295 766.369 776.722 765.277 775.347 760.835C774.025 756.565 775.629 753.43 778.868 752.427C781.39 751.646 783.233 752.834 784.159 753.898C784.148 752.237 784.968 749.816 788.207 748.813Z" fill="black"/>
<path d="M809.209 796.758L811.731 795.977L816.158 810.277L814.439 810.81L805.518 806.035C802.628 804.511 800.747 803.712 798.54 804.395C796.276 805.096 795.221 806.962 795.957 809.34C796.694 811.719 798.791 812.609 801.112 811.89L802.43 811.482L803.273 814.204L801.926 814.621C798.172 815.784 794.687 814.162 793.436 810.121C792.184 806.08 794.097 802.725 797.68 801.615C800.889 800.622 803.527 801.94 806.735 803.679L812.279 806.674L809.209 796.758Z" fill="black"/>
<path d="M802.525 862.497L822.958 856.17L823.819 858.95L806.624 864.274L811.109 868.413L808.472 869.229L803.164 864.56L802.525 862.497Z" fill="black"/>
<path d="M805.063 910.918C803.732 906.619 805.614 902.959 810.285 901.512L816.475 899.596C821.375 898.078 824.793 900.192 826.098 904.405C827.402 908.617 825.776 912.293 820.876 913.81L814.686 915.727C810.015 917.173 806.394 915.216 805.063 910.918ZM823.576 905.186C822.68 902.291 820.135 901.477 817.298 902.356L811.165 904.255C808.328 905.133 806.689 907.242 807.585 910.137C808.481 913.031 811.026 913.845 813.863 912.967L819.995 911.068C822.833 910.189 824.472 908.08 823.576 905.186Z" fill="black"/>
<path d="M783.366 964.249L804.128 959.107L804.828 961.932L787.356 966.259L791.596 970.648L788.917 971.312L783.885 966.346L783.366 964.249Z" fill="black"/>
<rect x="1171" y="489.831" width="114.103" height="47.4355" transform="rotate(-47.281 1171 489.831)" fill="black"/>
<path d="M1096.72 443.912C1093.89 448.315 1091.98 468.068 1094.38 473.526C1097.37 480.349 1098.69 483.328 1105.03 487.162C1110.09 490.228 1121.63 490.853 1124.53 491.261L1158.7 491.447L1167.41 493.003M1096.72 443.912L1096.61 439.159C1092.44 438.649 1077.19 436.622 1068.68 431.204C1060.18 425.786 1053.79 414.461 1051.66 409.477C1048.61 402.711 1042.38 384.822 1043.26 373.223C1044.36 358.723 1047.76 334.905 1093.57 298.242C1130.22 268.912 1165.79 295.675 1185.05 308.159C1186.3 310.033 1195.15 315.579 1209.16 332.188C1226.86 353.156 1226.82 354.682 1233.07 365.193C1238.11 373.678 1244.63 390.625 1246.53 398.555L1249.62 405.622M1096.72 443.912C1128.01 412.459 1139.59 401.63 1152.28 405.205M1249.62 405.622L1252.71 412.689L1284.71 441.636L1245.98 482.177L1207.26 522.719L1176.12 494.559L1167.41 493.003M1249.62 405.622L1213.53 445.865L1167.41 493.003M1143.69 457C1172.79 438.805 1169.77 410.13 1152.28 405.205M1152.28 405.205C1166.7 394.625 1188.86 365.746 1158.67 331.728" stroke="#F80082" stroke-width="8"/>
<rect width="111.016" height="47.0921" transform="matrix(-0.686845 -0.726804 -0.726804 0.686845 154.375 478.116)" fill="black"/>
<path d="M230.598 432.914C233.421 437.317 235.337 457.07 232.938 462.528C229.94 469.351 228.623 472.33 222.288 476.163C217.22 479.23 205.685 479.854 202.787 480.263L168.612 480.447L159.9 482.003M230.598 432.914L230.698 428.16C234.875 427.65 250.123 425.624 258.629 420.205C267.136 414.787 273.525 403.463 275.657 398.478C278.707 391.713 284.932 373.824 284.052 362.224C282.952 347.725 279.552 323.906 233.739 287.243C197.088 257.912 161.524 284.674 142.264 297.159C141.008 299.033 132.165 304.578 118.148 321.187C100.451 342.155 100.492 343.681 94.2461 354.192C89.2037 362.677 82.6782 379.624 80.7866 387.554L77.6931 394.621M230.598 432.914C199.3 401.46 187.727 390.631 175.029 394.206M77.6931 394.621L74.5995 401.688L42.6 430.635L81.3292 471.177L120.058 511.719L151.189 483.559L159.9 482.003M77.6931 394.621L113.781 434.865L159.9 482.003M183.62 446.001C154.518 427.805 157.537 399.13 175.029 394.206M175.029 394.206C160.609 383.625 138.449 354.746 168.644 320.728" stroke="#F80082" stroke-width="8"/>
<circle cx="736.745" cy="377.745" r="27.745" fill="#F80082"/>
<path d="M1013.35 432.293C1006.87 436.007 1003.5 430.755 1002.63 427.665L954.32 407.225C927.751 396.652 868.855 374.101 845.825 368.477C822.794 362.854 795.846 352.642 785.25 348.239C769.824 342.295 734.972 328.747 718.972 322.114C698.973 313.822 699.938 313.628 705.237 294.983C710.535 276.338 729.767 290.811 735.369 291.194C740.971 291.576 893.536 364.675 900.011 369.403C906.485 374.131 1004.84 417.425 1008.99 414.331C1012.31 411.856 1016.11 414.326 1017.59 415.87C1018.88 419.797 1019.84 428.58 1013.35 432.293Z" stroke="black" stroke-width="4"/>
<path d="M69.1168 650.942L8 550.683H185.25L183.637 470H1124.12L1125.62 544.257L1293.23 539.411L1249.32 639.671L1314 762.474H1036.3V706.115L296.376 707.302V769H8L69.1168 650.942Z" fill="white"/>
<path d="M296.376 769H8L69.1168 650.942L8 550.683H185.25M296.376 769V707.302M296.376 769L188.383 707.302M296.376 707.302H188.383M296.376 707.302L1036.3 706.115M188.383 707.302L185.25 550.683M1128.87 706.115H1036.3M1128.87 706.115L1036.3 762.474M1128.87 706.115L1125.62 544.257M1036.3 706.115V762.474M1036.3 762.474H1314L1249.32 639.671L1293.23 539.411L1125.62 544.257M1125.62 544.257L1124.12 470H183.637L185.25 550.683" stroke="#F80082" stroke-width="8"/>
</svg>
