<svg width="329" height="329" viewBox="0 0 329 329" fill="none" xmlns="http://www.w3.org/2000/svg">
<path d="M75.7793 121.266C106.038 108.696 175.669 82.9169 212.12 80.3577M75.7793 121.266L68.5887 97.9355M75.7793 121.266C69.5027 133.782 63.8387 154.953 66.6645 178.588M212.12 80.3577L206.947 56.0629M212.12 80.3577C223.226 87.842 237.963 102.225 248.119 122.029M206.947 56.0629C194.274 50.6392 167.155 41.5807 160.068 48.7371C146.913 48.0056 117.268 50.6645 103.936 67.1525C98.9949 67.5323 85.0084 74.2207 68.5887 97.9355M206.947 56.0629C288.6 82.2034 297.408 201.177 258.597 229.899M68.5887 97.9355C9.01019 183.984 86.0337 266.068 120.414 273.174M115.021 255.677L120.414 273.174M115.021 255.677L164.18 247.04M115.021 255.677C96.8277 242.555 84.7932 227.911 77.1936 213.099M120.414 273.174C134.023 278.481 162.398 286.955 167.029 278.395M167.029 278.395L164.18 247.04M167.029 278.395C185.272 282.957 214.42 269.861 226.714 262.743M164.18 247.04L198.956 237.35M198.956 237.35C205.753 245.171 220.82 261.199 226.714 262.743M198.956 237.35L250.879 213.76M226.714 262.743C253.798 242.256 259.254 232.31 258.597 229.899M250.879 213.76L258.597 229.899M250.879 213.76C259.506 192.659 261.308 173.289 258.965 156.132M258.965 156.132C232.673 177.99 159.509 219.983 77.1936 213.099M258.965 156.132C257.24 143.5 253.268 132.068 248.119 122.029M77.1936 213.099C71.2326 201.48 68.0002 189.759 66.6645 178.588M66.6645 178.588C96.5248 161.373 174.62 125.961 248.119 122.029" stroke="#F80082" stroke-width="4"/>
<path d="M104.316 68.123C109.983 73.623 122.699 88.2998 127.499 101.5" stroke="#F80082" stroke-width="4"/>
<path d="M160.316 49.123C158.483 55.7897 155.916 73.323 160.316 90.123" stroke="#F80082" stroke-width="4"/>
</svg>
