<svg width="572" height="482" viewBox="0 0 572 482" fill="none" xmlns="http://www.w3.org/2000/svg">
<path d="M210.09 255.198C196.62 246.551 191.938 236.881 190.064 230.31C187.447 221.129 185.887 217.855 187.612 210.155C195.015 195.919 208.541 177.349 212.462 170.839C216.384 164.329 225.995 163.231 230.311 163.495C238.138 159.804 269.569 171.967 284.307 178.509C295.503 183.502 325.533 199.607 356.086 224.081C369.04 234.458 376.071 244.296 379.492 252.772C384.139 264.288 382.12 273.291 379.231 277.715L357.56 313.692C354.559 319.324 350.513 322.397 346.41 323.903C340.726 325.989 334.93 325.066 331.646 323.765C324.876 321.438 307.856 315.389 293.94 309.808C280.024 304.228 278.564 292.375 279.574 287.146C279.835 284.774 280.655 276.823 281.843 263.997C283.032 251.171 274.058 253.665 269.423 256.515L244.701 271.393C234.831 274.203 221.876 262.764 210.09 255.198Z" fill="black" stroke="black" stroke-width="4"/>
<path d="M229.79 162.481L128.205 96.6211C105.585 83.4281 91.7155 83.7468 79.0554 105.54C63.2303 132.78 59.1075 151.302 84.6048 169.004L112.016 185.515L189.543 229.296M229.79 162.481C237.617 158.791 269.048 170.953 283.786 177.495C294.982 182.488 325.012 198.593 355.565 223.067C368.519 233.444 375.55 243.282 378.971 251.759M229.79 162.481C225.474 162.217 215.863 163.315 211.941 169.825C208.02 176.335 194.494 194.905 187.091 209.141C185.366 216.841 186.926 220.115 189.543 229.296M189.543 229.296C191.417 235.867 196.099 245.537 209.569 254.184C221.355 261.75 234.31 273.189 244.18 270.379L268.902 255.502C273.537 252.651 282.511 250.157 281.322 262.983C280.134 275.809 279.314 283.76 279.053 286.132C278.043 291.361 279.503 303.214 293.419 308.794C307.335 314.375 324.355 320.424 331.125 322.751C334.409 324.052 340.205 324.975 345.889 322.889M345.889 322.889C349.993 321.383 354.038 318.31 357.039 312.678L378.71 276.701C381.599 272.277 383.618 263.274 378.971 251.759M345.889 322.889L441.719 385.283C453.226 392.02 480.576 397.715 497.917 366.601C515.258 335.487 494.69 315.432 482.239 309.294L378.971 251.759" stroke="black" stroke-width="4"/>
</svg>
