<svg width="350" height="384" viewBox="0 0 350 384" fill="none" xmlns="http://www.w3.org/2000/svg">
<path d="M222.57 198.277L265.04 357.282L238.936 367.933L152.821 227.223M222.57 198.277C228.209 196.543 240.062 192.181 242.361 188.61C244.659 185.039 249.494 149.427 251.624 132.068L223.593 143.482M222.57 198.277L152.821 227.223M152.821 227.223C141.388 234.003 130.289 229.548 126.169 226.472L88.2705 198.588L120.168 185.599M120.168 185.599C106.215 176.951 86.0993 152.068 76.8362 131.555C65.779 107.069 72.509 67.2052 77.0457 56.2365L102.716 13.4193L139.926 37.2201M120.168 185.599L170.601 165.062M223.593 143.482L220.87 137.198C221.418 136.183 223.226 130.697 226.069 116.869C228.912 103.042 220.31 90.8503 215.654 86.4831L178.6 62.0707M223.593 143.482L215.033 146.968M139.926 37.2201L172.672 58.1648L178.6 62.0707M139.926 37.2201C129.86 48.3661 111.648 76.6938 119.329 100.836C127.01 124.979 132.169 134.153 133.788 135.722C139 142.831 153.658 158.65 170.601 165.062M170.601 165.062L215.033 146.968M178.6 62.0707C174.904 65.2381 167.537 74.1787 167.643 84.6019C167.775 97.6308 171.99 108.238 174.201 113.136C175.971 117.053 199.939 132.135 211.703 139.186L215.033 146.968" stroke="black" stroke-width="4"/>
<path d="M221.268 203.123L157 228.999L240 364.999L264 355.999L221.268 203.123Z" fill="black" stroke="black" stroke-width="4"/>
</svg>
